<svg width="330" height="216" viewBox="0 0 330 216" fill="none" xmlns="http://www.w3.org/2000/svg">
<g filter="url(#filter0_d_2760_92266)">
<g clip-path="url(#clip0_2760_92266)">
<rect x="9.79688" y="8.92383" width="310.683" height="196.059" rx="11.5239" fill="#152451"/>
<circle cx="89.3217" cy="82.9702" r="107.556" fill="#203679"/>
<circle cx="73.9566" cy="67.605" r="92.1909" fill="#2B48A1"/>
<circle cx="58.5914" cy="52.2398" r="76.8258" fill="#C99B03"/>
<circle cx="43.2262" cy="36.8747" r="61.4606" fill="#FBC205"/>
<circle cx="27.8611" cy="21.5095" r="46.0955" fill="#FBC205"/>
<g clip-path="url(#clip1_2760_92266)">
<path d="M30.5695 181.118C30.5695 179.7 30.8235 178.59 31.3316 177.786C31.8478 176.983 32.7001 176.582 33.8883 176.582C35.0766 176.582 35.9247 176.983 36.4328 177.786C36.9491 178.59 37.2072 179.7 37.2072 181.118C37.2072 182.543 36.9491 183.662 36.4328 184.473C35.9247 185.285 35.0766 185.69 33.8883 185.69C32.7001 185.69 31.8478 185.285 31.3316 184.473C30.8235 183.662 30.5695 182.543 30.5695 181.118ZM35.5109 181.118C35.5109 180.511 35.4699 180.003 35.388 179.593C35.3142 179.175 35.1585 178.835 34.9209 178.573C34.6914 178.311 34.3472 178.18 33.8883 178.18C33.4294 178.18 33.0811 178.311 32.8435 178.573C32.614 178.835 32.4583 179.175 32.3764 179.593C32.3026 180.003 32.2658 180.511 32.2658 181.118C32.2658 181.74 32.3026 182.265 32.3764 182.691C32.4501 183.109 32.6058 183.449 32.8435 183.711C33.0811 183.965 33.4294 184.092 33.8883 184.092C34.3472 184.092 34.6955 183.965 34.9332 183.711C35.1708 183.449 35.3265 183.109 35.4003 182.691C35.474 182.265 35.5109 181.74 35.5109 181.118ZM38.3072 178.34V176.754H41.2696V185.715H39.4995V178.34H38.3072ZM43.5105 183.773C44.2972 183.117 44.9241 182.572 45.3912 182.138C45.8583 181.695 46.2475 181.236 46.5589 180.761C46.8703 180.286 47.026 179.819 47.026 179.36C47.026 178.942 46.9277 178.614 46.731 178.376C46.5343 178.139 46.2311 178.02 45.8214 178.02C45.4116 178.02 45.0962 178.159 44.8749 178.438C44.6536 178.708 44.5389 179.081 44.5307 179.556H42.859C42.8918 178.573 43.1827 177.827 43.7317 177.319C44.289 176.811 44.9937 176.557 45.846 176.557C46.7802 176.557 47.4972 176.807 47.9971 177.307C48.497 177.799 48.7469 178.45 48.7469 179.261C48.7469 179.901 48.5748 180.511 48.2306 181.093C47.8865 181.675 47.4931 182.183 47.0506 182.617C46.6081 183.043 46.0304 183.56 45.3174 184.166H48.9436V185.592H42.8713V184.314L43.5105 183.773ZM50.0526 179.114C50.0935 178.294 50.3804 177.664 50.913 177.221C51.4539 176.77 52.1627 176.545 53.0396 176.545C53.6378 176.545 54.1499 176.651 54.5761 176.865C55.0022 177.069 55.3218 177.352 55.5349 177.713C55.7561 178.065 55.8667 178.467 55.8667 178.917C55.8667 179.434 55.7315 179.872 55.4611 180.233C55.1989 180.585 54.8834 180.823 54.5146 180.945V180.995C54.9899 181.142 55.3587 181.404 55.6209 181.781C55.8913 182.158 56.0265 182.642 56.0265 183.232C56.0265 183.724 55.9118 184.162 55.6824 184.547C55.4611 184.932 55.1292 185.235 54.6867 185.457C54.2524 185.67 53.7279 185.776 53.1133 185.776C52.1873 185.776 51.4334 185.543 50.8516 185.076C50.2697 184.609 49.9624 183.92 49.9296 183.011H51.6014C51.6178 183.412 51.753 183.736 52.007 183.982C52.2692 184.219 52.6257 184.338 53.0764 184.338C53.4944 184.338 53.814 184.223 54.0352 183.994C54.2647 183.756 54.3794 183.453 54.3794 183.084C54.3794 182.593 54.2237 182.24 53.9123 182.027C53.6009 181.814 53.1174 181.708 52.4618 181.708H52.1054V180.294H52.4618C53.6255 180.294 54.2073 179.905 54.2073 179.126C54.2073 178.774 54.1008 178.499 53.8877 178.303C53.6828 178.106 53.3837 178.008 52.9904 178.008C52.6052 178.008 52.3061 178.114 52.0931 178.327C51.8882 178.532 51.7694 178.794 51.7366 179.114H50.0526ZM60.2417 183.969V182.617L64.2612 176.865H66.2648V182.47H67.3465V183.969H66.2648V185.715H64.5439V183.969H60.2417ZM64.6546 178.708L62.1347 182.47H64.6546V178.708ZM74.4653 178.241H70.4827V180.343C70.6547 180.13 70.9006 179.958 71.2202 179.827C71.5398 179.688 71.8799 179.618 72.2404 179.618C72.896 179.618 73.4328 179.761 73.8507 180.048C74.2686 180.335 74.5718 180.704 74.7603 181.154C74.9488 181.597 75.043 182.072 75.043 182.58C75.043 183.523 74.7726 184.281 74.2318 184.854C73.6991 185.428 72.937 185.715 71.9454 185.715C71.0112 185.715 70.2655 185.481 69.7082 185.014C69.151 184.547 68.8355 183.937 68.7618 183.183H70.4335C70.5072 183.51 70.6711 183.773 70.9252 183.969C71.1874 184.166 71.5193 184.264 71.9208 184.264C72.4043 184.264 72.769 184.113 73.0148 183.81C73.2607 183.506 73.3836 183.105 73.3836 182.605C73.3836 182.097 73.2566 181.712 73.0025 181.449C72.7567 181.179 72.392 181.044 71.9085 181.044C71.5644 181.044 71.2775 181.13 71.0481 181.302C70.8186 181.474 70.6547 181.704 70.5564 181.99H68.9093V176.729H74.4653V178.241ZM80.9992 178.991C80.9173 178.647 80.7739 178.389 80.569 178.217C80.3723 178.045 80.0855 177.959 79.7086 177.959C79.1431 177.959 78.7252 178.188 78.4548 178.647C78.1925 179.098 78.0573 179.835 78.0491 180.859C78.2458 180.532 78.5326 180.278 78.9096 180.097C79.2865 179.909 79.6963 179.815 80.1388 179.815C80.6714 179.815 81.1426 179.929 81.5524 180.159C81.9621 180.388 82.2817 180.724 82.5112 181.167C82.7406 181.601 82.8553 182.126 82.8553 182.74C82.8553 183.322 82.7365 183.842 82.4989 184.301C82.2694 184.752 81.9293 185.104 81.4786 185.358C81.0279 185.612 80.4912 185.739 79.8684 185.739C79.0161 185.739 78.3441 185.551 77.8525 185.174C77.369 184.797 77.0289 184.273 76.8322 183.601C76.6437 182.92 76.5495 182.085 76.5495 181.093C76.5495 179.593 76.8076 178.462 77.3239 177.7C77.8402 176.93 78.6555 176.545 79.77 176.545C80.6305 176.545 81.2983 176.778 81.7736 177.246C82.2489 177.713 82.5235 178.294 82.5972 178.991H80.9992ZM79.7454 181.228C79.3111 181.228 78.9465 181.355 78.6514 181.609C78.3564 181.863 78.2089 182.232 78.2089 182.716C78.2089 183.199 78.3441 183.58 78.6146 183.859C78.8932 184.137 79.2824 184.277 79.7823 184.277C80.2248 184.277 80.5731 184.141 80.8271 183.871C81.0894 183.601 81.2205 183.236 81.2205 182.777C81.2205 182.302 81.0935 181.925 80.8394 181.646C80.5936 181.368 80.2289 181.228 79.7454 181.228ZM89.919 178.057L86.6493 185.715H84.9038L88.1981 178.254H83.9942V176.778H89.919V178.057ZM95.3783 180.97C94.5589 180.544 94.1491 179.884 94.1491 178.991C94.1491 178.549 94.2597 178.147 94.481 177.786C94.7105 177.418 95.0505 177.127 95.5013 176.914C95.9602 176.692 96.5174 176.582 97.173 176.582C97.8286 176.582 98.3817 176.692 98.8324 176.914C99.2913 177.127 99.6314 177.418 99.8527 177.786C100.082 178.147 100.197 178.549 100.197 178.991C100.197 179.442 100.086 179.839 99.865 180.183C99.6437 180.519 99.3487 180.782 98.9799 180.97C99.4306 181.167 99.783 181.454 100.037 181.831C100.291 182.207 100.418 182.654 100.418 183.17C100.418 183.728 100.275 184.215 99.9879 184.633C99.7093 185.043 99.3241 185.358 98.8324 185.58C98.3407 185.801 97.7876 185.912 97.173 185.912C96.5584 185.912 96.0052 185.801 95.5135 185.58C95.0301 185.358 94.6449 185.043 94.3581 184.633C94.0795 184.215 93.9402 183.728 93.9402 183.17C93.9402 182.654 94.0672 182.207 94.3212 181.831C94.5752 181.445 94.9276 181.159 95.3783 180.97ZM98.5251 179.237C98.5251 178.835 98.4022 178.524 98.1564 178.303C97.9187 178.081 97.5909 177.971 97.173 177.971C96.7632 177.971 96.4355 178.081 96.1896 178.303C95.952 178.524 95.8331 178.839 95.8331 179.249C95.8331 179.618 95.9561 179.913 96.2019 180.134C96.4559 180.355 96.7796 180.466 97.173 180.466C97.5663 180.466 97.89 180.355 98.1441 180.134C98.3981 179.905 98.5251 179.606 98.5251 179.237ZM97.173 181.72C96.7059 181.72 96.3248 181.839 96.0298 182.076C95.743 182.314 95.5996 182.654 95.5996 183.097C95.5996 183.506 95.7389 183.842 96.0175 184.105C96.3043 184.359 96.6895 184.486 97.173 184.486C97.6565 184.486 98.0375 184.355 98.3162 184.092C98.5948 183.83 98.7341 183.498 98.7341 183.097C98.7341 182.662 98.5907 182.326 98.3039 182.089C98.017 181.843 97.6401 181.72 97.173 181.72ZM103.769 183.195C103.834 183.556 103.982 183.834 104.211 184.031C104.449 184.219 104.764 184.314 105.158 184.314C105.666 184.314 106.035 184.105 106.264 183.687C106.493 183.261 106.608 182.548 106.608 181.548C106.42 181.81 106.153 182.015 105.809 182.162C105.473 182.31 105.109 182.384 104.715 182.384C104.191 182.384 103.715 182.277 103.289 182.064C102.871 181.843 102.539 181.519 102.294 181.093C102.048 180.659 101.925 180.134 101.925 179.52C101.925 178.61 102.195 177.889 102.736 177.356C103.277 176.815 104.015 176.545 104.949 176.545C106.112 176.545 106.932 176.918 107.407 177.664C107.891 178.409 108.132 179.532 108.132 181.032C108.132 182.097 108.038 182.97 107.85 183.65C107.669 184.33 107.354 184.846 106.903 185.199C106.461 185.551 105.854 185.727 105.084 185.727C104.478 185.727 103.961 185.612 103.535 185.383C103.109 185.145 102.781 184.838 102.552 184.461C102.33 184.076 102.203 183.654 102.171 183.195H103.769ZM105.072 180.982C105.498 180.982 105.834 180.851 106.08 180.589C106.325 180.327 106.448 179.974 106.448 179.532C106.448 179.048 106.317 178.676 106.055 178.413C105.801 178.143 105.453 178.008 105.01 178.008C104.568 178.008 104.215 178.147 103.953 178.426C103.699 178.696 103.572 179.057 103.572 179.507C103.572 179.942 103.695 180.298 103.941 180.577C104.195 180.847 104.572 180.982 105.072 180.982ZM109.263 178.34V176.754H112.225V185.715H110.455V178.34H109.263ZM113.925 181.118C113.925 179.7 114.179 178.59 114.688 177.786C115.204 176.983 116.056 176.582 117.244 176.582C118.433 176.582 119.281 176.983 119.789 177.786C120.305 178.59 120.563 179.7 120.563 181.118C120.563 182.543 120.305 183.662 119.789 184.473C119.281 185.285 118.433 185.69 117.244 185.69C116.056 185.69 115.204 185.285 114.688 184.473C114.179 183.662 113.925 182.543 113.925 181.118ZM118.867 181.118C118.867 180.511 118.826 180.003 118.744 179.593C118.67 179.175 118.514 178.835 118.277 178.573C118.047 178.311 117.703 178.18 117.244 178.18C116.785 178.18 116.437 178.311 116.199 178.573C115.97 178.835 115.814 179.175 115.732 179.593C115.659 180.003 115.622 180.511 115.622 181.118C115.622 181.74 115.659 182.265 115.732 182.691C115.806 183.109 115.962 183.449 116.199 183.711C116.437 183.965 116.785 184.092 117.244 184.092C117.703 184.092 118.051 183.965 118.289 183.711C118.527 183.449 118.682 183.109 118.756 182.691C118.83 182.265 118.867 181.74 118.867 181.118ZM124.592 178.34V176.754H127.555V185.715H125.784V178.34H124.592ZM129.046 178.34V176.754H132.008V185.715H130.238V178.34H129.046ZM133.499 178.34V176.754H136.461V185.715H134.691V178.34H133.499ZM138.702 183.773C139.489 183.117 140.116 182.572 140.583 182.138C141.05 181.695 141.439 181.236 141.751 180.761C142.062 180.286 142.218 179.819 142.218 179.36C142.218 178.942 142.12 178.614 141.923 178.376C141.726 178.139 141.423 178.02 141.013 178.02C140.604 178.02 140.288 178.159 140.067 178.438C139.846 178.708 139.731 179.081 139.723 179.556H138.051C138.084 178.573 138.375 177.827 138.924 177.319C139.481 176.811 140.186 176.557 141.038 176.557C141.972 176.557 142.689 176.807 143.189 177.307C143.689 177.799 143.939 178.45 143.939 179.261C143.939 179.901 143.767 180.511 143.423 181.093C143.078 181.675 142.685 182.183 142.243 182.617C141.8 183.043 141.222 183.56 140.509 184.166H144.136V185.592H138.063V184.314L138.702 183.773Z" fill="#EEE6FF"/>
<path d="M179.183 179.582C179.183 178.165 179.437 177.054 179.945 176.251C180.461 175.448 181.313 175.047 182.502 175.047C183.69 175.047 184.538 175.448 185.046 176.251C185.562 177.054 185.82 178.165 185.82 179.582C185.82 181.008 185.562 182.127 185.046 182.938C184.538 183.749 183.69 184.155 182.502 184.155C181.313 184.155 180.461 183.749 179.945 182.938C179.437 182.127 179.183 181.008 179.183 179.582ZM184.124 179.582C184.124 178.976 184.083 178.468 184.001 178.058C183.927 177.64 183.772 177.3 183.534 177.038C183.305 176.776 182.961 176.645 182.502 176.645C182.043 176.645 181.694 176.776 181.457 177.038C181.227 177.3 181.072 177.64 180.99 178.058C180.916 178.468 180.879 178.976 180.879 179.582C180.879 180.205 180.916 180.73 180.99 181.156C181.063 181.574 181.219 181.914 181.457 182.176C181.694 182.43 182.043 182.557 182.502 182.557C182.961 182.557 183.309 182.43 183.546 182.176C183.784 181.914 183.94 181.574 184.014 181.156C184.087 180.73 184.124 180.205 184.124 179.582ZM187.535 176.804V175.219H190.497V184.18H188.727V176.804H187.535ZM197.618 172.539L194.299 186.405H192.615L195.934 172.539H197.618ZM199.946 182.238C200.732 181.582 201.359 181.037 201.826 180.603C202.293 180.16 202.683 179.701 202.994 179.226C203.305 178.751 203.461 178.284 203.461 177.825C203.461 177.407 203.363 177.079 203.166 176.841C202.969 176.604 202.666 176.485 202.256 176.485C201.847 176.485 201.531 176.624 201.31 176.903C201.089 177.173 200.974 177.546 200.966 178.021H199.294C199.327 177.038 199.618 176.292 200.167 175.784C200.724 175.276 201.429 175.022 202.281 175.022C203.215 175.022 203.932 175.272 204.432 175.772C204.932 176.264 205.182 176.915 205.182 177.726C205.182 178.366 205.01 178.976 204.666 179.558C204.322 180.14 203.928 180.648 203.486 181.082C203.043 181.508 202.465 182.024 201.753 182.631H205.379V184.057H199.306V182.778L199.946 182.238ZM213.101 176.706H209.118V178.808C209.29 178.595 209.536 178.423 209.856 178.292C210.175 178.152 210.515 178.083 210.876 178.083C211.532 178.083 212.068 178.226 212.486 178.513C212.904 178.8 213.207 179.169 213.396 179.619C213.584 180.062 213.679 180.537 213.679 181.045C213.679 181.988 213.408 182.746 212.867 183.319C212.335 183.893 211.573 184.18 210.581 184.18C209.647 184.18 208.901 183.946 208.344 183.479C207.787 183.012 207.471 182.401 207.397 181.648H209.069C209.143 181.975 209.307 182.238 209.561 182.434C209.823 182.631 210.155 182.729 210.556 182.729C211.04 182.729 211.405 182.578 211.65 182.274C211.896 181.971 212.019 181.57 212.019 181.07C212.019 180.562 211.892 180.177 211.638 179.914C211.392 179.644 211.028 179.509 210.544 179.509C210.2 179.509 209.913 179.595 209.684 179.767C209.454 179.939 209.29 180.168 209.192 180.455H207.545V175.194H213.101V176.706Z" fill="#EEE6FF"/>
<path d="M286.086 188.589H275.512V169.742H286.086V188.589Z" fill="#FF5F00"/>
<path d="M276.192 179.164C276.192 175.341 277.997 171.935 280.808 169.74C278.752 168.136 276.158 167.178 273.339 167.178C266.664 167.178 261.254 172.544 261.254 179.164C261.254 185.784 266.664 191.15 273.339 191.15C276.158 191.15 278.752 190.192 280.808 188.588C277.997 186.393 276.192 182.987 276.192 179.164" fill="#EB001B"/>
<path d="M300.348 179.164C300.348 185.784 294.937 191.15 288.263 191.15C285.443 191.15 282.849 190.192 280.793 188.588C283.605 186.393 285.41 182.987 285.41 179.164C285.41 175.341 283.605 171.935 280.793 169.74C282.849 168.136 285.443 167.178 288.263 167.178C294.937 167.178 300.348 172.544 300.348 179.164" fill="#F79E1B"/>
<path d="M250.904 80.2156H254.186C255.079 80.2156 255.735 80.3959 256.152 80.7564C256.579 81.1088 256.792 81.6824 256.792 82.4773C256.792 82.9035 256.722 83.2558 256.583 83.5344C256.443 83.8131 256.206 84.0589 255.87 84.272C256.239 84.4195 256.509 84.6448 256.681 84.948C256.861 85.2512 256.951 85.6487 256.951 86.1404C256.951 86.9599 256.718 87.5704 256.251 87.9719C255.784 88.3734 255.112 88.5742 254.235 88.5742H250.904V80.2156ZM254.112 83.6574C254.751 83.6574 255.071 83.3255 255.071 82.6617C255.071 81.9979 254.747 81.666 254.1 81.666H252.6V83.6574H254.112ZM254.149 87.1237C254.518 87.1237 254.788 87.05 254.96 86.9025C255.14 86.7468 255.231 86.4887 255.231 86.1281C255.231 85.7675 255.145 85.5053 254.972 85.3414C254.8 85.1693 254.526 85.0833 254.149 85.0833H252.6V87.1237H254.149ZM262.613 87.0623H259.687L259.355 88.5742H257.659L259.54 80.2156H262.76L264.641 88.5742H262.945L262.613 87.0623ZM261.445 81.6169H260.855L260.007 85.5872H262.293L261.445 81.6169ZM270.573 87.0746V88.5742H265.816V80.2156H267.512V87.0746H270.573ZM275.928 87.0623H273.003L272.671 88.5742H270.974L272.855 80.2156H276.076L277.956 88.5742H276.26L275.928 87.0623ZM274.76 81.6169H274.17L273.322 85.5872H275.609L274.76 81.6169ZM285.83 80.2156V88.5742H283.04L280.95 81.6906H280.827V88.5742H279.131V80.2156H281.995L284.011 87.0992H284.134V80.2156H285.83ZM290.665 88.7217C289.78 88.7217 289.1 88.566 288.625 88.2546C288.15 87.9432 287.822 87.4843 287.642 86.8779C287.469 86.2633 287.383 85.4479 287.383 84.4318C287.383 83.3173 287.478 82.4486 287.666 81.8258C287.863 81.203 288.186 80.7564 288.637 80.486C289.088 80.2074 289.719 80.0681 290.53 80.0681C291.276 80.0681 292.108 80.1787 293.025 80.4L292.976 81.7521C292.165 81.6292 291.505 81.5677 290.997 81.5677C290.481 81.5677 290.092 81.6497 289.83 81.8135C289.567 81.9774 289.383 82.2479 289.276 82.6248C289.178 82.9936 289.129 83.5181 289.129 84.1982V84.653C289.145 85.3578 289.194 85.8863 289.276 86.2387C289.367 86.5829 289.539 86.8328 289.793 86.9885C290.047 87.1442 290.436 87.2221 290.96 87.2221C291.518 87.2221 292.19 87.1647 292.976 87.05L293.013 88.439C292.12 88.6275 291.337 88.7217 290.665 88.7217ZM296.147 81.6906V83.6451H299.122V85.0955H296.147V87.0992H299.86V88.5742H294.451V80.2156H299.86V81.6906H296.147Z" fill="#EEE6FF"/>
<path d="M159.136 125.868C157.681 125.809 156.953 125.741 156.953 125.662L157.366 122.24C155.871 122.063 154.652 121.856 153.708 121.62L153.118 121.502L153.501 118.434C155.094 118.65 156.53 118.798 157.808 118.877L158.457 113.743C156.412 113.134 154.966 112.386 154.121 111.501C153.295 110.616 152.882 109.436 152.882 107.961C152.882 106.073 153.462 104.647 154.622 103.684C155.783 102.7 157.415 102.208 159.519 102.208H159.903L160.434 98.1373H162.617L162.086 102.385C162.499 102.425 163.069 102.494 163.797 102.592C164.525 102.69 165.076 102.779 165.449 102.857L165.951 102.975L165.626 106.103C164.19 105.965 162.863 105.847 161.644 105.749L161.054 110.498C162.391 110.931 163.433 111.373 164.181 111.826C164.928 112.259 165.469 112.809 165.803 113.478C166.157 114.127 166.334 114.982 166.334 116.044C166.334 118.129 165.734 119.712 164.535 120.794C163.335 121.856 161.693 122.387 159.608 122.387H159.578L159.136 125.868ZM159.46 105.69C157.69 105.768 156.805 106.447 156.805 107.725C156.805 108.197 156.953 108.581 157.248 108.876C157.563 109.171 158.133 109.476 158.959 109.79L159.46 105.69ZM160.021 118.906C160.827 118.827 161.427 118.582 161.821 118.169C162.214 117.736 162.411 117.175 162.411 116.487C162.411 115.956 162.273 115.553 161.998 115.277C161.742 114.982 161.27 114.687 160.582 114.392L160.021 118.906ZM176.293 122.387C173.913 122.387 172.104 121.522 170.865 119.791C169.645 118.041 169.036 115.474 169.036 112.091C169.036 108.768 169.724 106.289 171.101 104.657C172.477 103.025 174.493 102.208 177.148 102.208C178.722 102.208 180.364 102.425 182.075 102.857L182.99 103.064L182.636 106.191C180.63 105.896 178.889 105.749 177.414 105.749C174.621 105.749 173.225 107.263 173.225 110.292L173.844 110.115C175.103 109.741 176.136 109.554 176.942 109.554C179.184 109.554 180.856 110.066 181.957 111.088C183.078 112.111 183.639 113.694 183.639 115.838C183.639 117.982 183.009 119.614 181.751 120.735C180.512 121.837 178.692 122.387 176.293 122.387ZM176.499 118.847C177.443 118.847 178.171 118.591 178.683 118.08C179.194 117.549 179.45 116.812 179.45 115.867C179.45 114.019 178.496 113.094 176.588 113.094C175.703 113.094 174.739 113.262 173.697 113.596L173.195 113.743C173.195 117.146 174.297 118.847 176.499 118.847ZM186.576 118.582L190.736 114.363C191.817 113.242 192.624 112.367 193.155 111.737C193.686 111.108 194.069 110.528 194.305 109.997C194.561 109.466 194.689 108.895 194.689 108.286C194.689 107.401 194.453 106.771 193.981 106.398C193.529 106.004 192.84 105.808 191.916 105.808C190.618 105.808 189.182 105.926 187.609 106.162L186.901 106.25L186.694 103.093C188.622 102.503 190.618 102.208 192.683 102.208C196.813 102.208 198.878 104.067 198.878 107.784C198.878 108.768 198.74 109.643 198.465 110.41C198.209 111.157 197.767 111.924 197.138 112.711C196.528 113.478 195.653 114.383 194.512 115.425L191.119 118.493H199.203V122.033H186.576V118.582ZM203.379 117.992H207.745L205.09 125.662H201.904L203.379 117.992ZM217.147 122.387C215.613 122.387 213.843 122.132 211.837 121.62L210.893 121.384L211.099 118.287C213.263 118.66 215.013 118.847 216.351 118.847C217.491 118.847 218.327 118.65 218.858 118.257C219.409 117.844 219.684 117.234 219.684 116.428C219.684 115.602 219.429 114.973 218.917 114.54C218.406 114.088 217.717 113.861 216.852 113.861H212.928V110.498H216.852C217.501 110.498 218.071 110.223 218.563 109.672C219.075 109.122 219.33 108.482 219.33 107.755C219.33 107.066 219.065 106.565 218.534 106.25C218.022 105.916 217.206 105.749 216.085 105.749C215.161 105.749 213.823 105.886 212.073 106.162L211.306 106.28L211.04 103.271C212.85 102.562 214.836 102.208 217 102.208C219.261 102.208 220.913 102.631 221.956 103.477C222.998 104.303 223.519 105.621 223.519 107.43C223.519 108.492 223.332 109.377 222.959 110.085C222.605 110.774 222.034 111.393 221.248 111.944C221.936 112.318 222.457 112.672 222.811 113.006C223.185 113.34 223.45 113.763 223.608 114.274C223.785 114.766 223.873 115.425 223.873 116.251C223.873 118.336 223.332 119.88 222.251 120.883C221.189 121.886 219.488 122.387 217.147 122.387ZM234.245 122.387C233.399 122.387 232.396 122.299 231.236 122.122C230.095 121.964 229.151 121.778 228.404 121.561L227.342 121.296L227.784 118.287C230.105 118.66 232.091 118.847 233.744 118.847C234.707 118.847 235.445 118.591 235.956 118.08C236.467 117.569 236.723 116.831 236.723 115.867C236.723 114.058 235.897 113.153 234.245 113.153C232.888 113.153 231.728 113.281 230.764 113.537L230.321 113.655L227.902 113.094L228.433 102.562H240.322V106.103H231.619L231.118 110.321C232.337 109.849 233.498 109.613 234.599 109.613C238.808 109.613 240.912 111.57 240.912 115.484C240.912 117.687 240.332 119.388 239.172 120.588C238.011 121.787 236.369 122.387 234.245 122.387ZM250.724 122.387C245.807 122.387 243.348 120.617 243.348 117.077C243.348 115.877 243.525 114.923 243.879 114.215C244.253 113.488 244.892 112.75 245.797 112.003C244.971 111.354 244.41 110.715 244.115 110.085C243.82 109.436 243.673 108.581 243.673 107.519C243.673 105.847 244.312 104.539 245.59 103.595C246.869 102.671 248.58 102.208 250.724 102.208C252.887 102.208 254.618 102.69 255.916 103.654C257.233 104.598 257.892 105.896 257.892 107.548C257.892 108.689 257.755 109.544 257.479 110.115C257.204 110.685 256.634 111.314 255.768 112.003C256.673 112.75 257.302 113.458 257.656 114.127C258.01 114.776 258.187 115.651 258.187 116.753C258.187 118.621 257.519 120.027 256.181 120.971C254.863 121.915 253.044 122.387 250.724 122.387ZM252.081 110.469C253.044 109.8 253.526 109.033 253.526 108.168C253.526 106.634 252.612 105.867 250.783 105.867C248.953 105.867 248.039 106.663 248.039 108.256C248.039 109.063 248.521 109.8 249.484 110.469H252.081ZM250.783 118.729C252.808 118.729 253.821 117.864 253.821 116.133C253.821 115.11 253.241 114.373 252.081 113.92H249.484C248.304 114.353 247.714 115.091 247.714 116.133C247.714 117.864 248.737 118.729 250.783 118.729ZM260.83 117.136H265.078V122.033H260.83V117.136ZM270.649 121.325L277.287 107.135V106.191H268.909V102.562H281.358V107.165L274.426 122.387L270.649 121.325ZM287.305 121.325L293.943 107.135V106.191H285.564V102.562H298.014V107.165L291.081 122.387L287.305 121.325Z" fill="#EEE6FF"/>
<path d="M231.432 45.1025V46.6661H233.812V47.8264H231.432V49.4293H234.402V50.6094H230.075V43.9225H234.402V45.1025H231.432ZM235.57 43.9225H236.927V50.6094H235.57V43.9225ZM241.835 49.3998H239.494L239.229 50.6094H237.872L239.376 43.9225H241.953L243.457 50.6094H242.1L241.835 49.3998ZM240.901 45.0435H240.429L239.75 48.2198H241.579L240.901 45.0435ZM246.649 43.9225C247.41 43.9225 247.993 44.0306 248.4 44.247C248.806 44.4568 249.088 44.7911 249.245 45.25C249.409 45.7089 249.491 46.3448 249.491 47.1577C249.491 48.0034 249.412 48.6721 249.255 49.1638C249.098 49.6555 248.813 50.0194 248.4 50.2554C247.993 50.4914 247.41 50.6094 246.649 50.6094H244.397V43.9225H246.649ZM246.649 49.4293C247.075 49.4293 247.39 49.3441 247.593 49.1737C247.803 49.0032 247.937 48.7606 247.996 48.446C248.062 48.1247 248.095 47.6691 248.095 47.0791C248.095 46.5546 248.062 46.158 247.996 45.8892C247.931 45.6204 247.796 45.4237 247.593 45.2992C247.39 45.1681 247.075 45.1025 246.649 45.1025H245.754V49.4293H246.649ZM259.909 43.9225V50.6094H258.552V45.4368H258.405L257.097 50.3144H255.74L254.432 45.4368H254.284V50.6094H252.927V43.9225H255.238L256.418 48.7901L257.598 43.9225H259.909ZM263.896 50.7274C263.22 50.7274 262.68 50.6061 262.273 50.3635C261.867 50.121 261.572 49.7506 261.388 49.2523C261.211 48.7475 261.123 48.0952 261.123 47.2954C261.123 46.4891 261.211 45.8335 261.388 45.3287C261.572 44.8173 261.867 44.4371 262.273 44.188C262.68 43.9323 263.22 43.8045 263.896 43.8045C264.571 43.8045 265.112 43.9323 265.518 44.188C265.925 44.4371 266.216 44.8173 266.393 45.3287C266.577 45.8335 266.669 46.4891 266.669 47.2954C266.669 48.0821 266.58 48.7246 266.403 49.2228C266.233 49.7211 265.944 50.098 265.538 50.3537C265.131 50.6028 264.584 50.7274 263.896 50.7274ZM263.896 49.5473C264.25 49.5473 264.525 49.4752 264.722 49.331C264.925 49.1802 265.066 48.9442 265.145 48.623C265.23 48.2952 265.272 47.8527 265.272 47.2954C265.272 46.7382 265.23 46.2957 265.145 45.9679C265.059 45.6335 264.915 45.3877 264.712 45.2303C264.515 45.0664 264.243 44.9845 263.896 44.9845C263.548 44.9845 263.273 45.0664 263.07 45.2303C262.873 45.3877 262.732 45.6335 262.647 45.9679C262.562 46.2957 262.519 46.7382 262.519 47.2954C262.519 47.8133 262.555 48.2329 262.627 48.5541C262.699 48.8754 262.834 49.1212 263.03 49.2917C263.234 49.4621 263.522 49.5473 263.896 49.5473ZM273.084 43.9225V50.6094H271.727V47.8363H269.239V50.6094H267.882V43.9225H269.239V46.6562H271.727V43.9225H273.084ZM277.988 49.3998H275.648L275.382 50.6094H274.025L275.53 43.9225H278.106L279.611 50.6094H278.254L277.988 49.3998ZM277.054 45.0435H276.582L275.904 48.2198H277.733L277.054 45.0435ZM287.533 43.9225V50.6094H286.176V45.4368H286.028L284.72 50.3144H283.363L282.055 45.4368H281.908V50.6094H280.551V43.9225H282.862L284.042 48.7901L285.222 43.9225H287.533ZM290.398 45.1025V46.6661H292.778V47.8264H290.398V49.4293H293.368V50.6094H289.041V43.9225H293.368V45.1025H290.398ZM296.787 43.9225C297.548 43.9225 298.131 44.0306 298.538 44.247C298.944 44.4568 299.226 44.7911 299.383 45.25C299.547 45.7089 299.629 46.3448 299.629 47.1577C299.629 48.0034 299.55 48.6721 299.393 49.1638C299.236 49.6555 298.951 50.0194 298.538 50.2554C298.131 50.4914 297.548 50.6094 296.787 50.6094H294.535V43.9225H296.787ZM296.787 49.4293C297.213 49.4293 297.528 49.3441 297.731 49.1737C297.941 49.0032 298.075 48.7606 298.134 48.446C298.2 48.1247 298.233 47.6691 298.233 47.0791C298.233 46.5546 298.2 46.158 298.134 45.8892C298.069 45.6204 297.934 45.4237 297.731 45.2992C297.528 45.1681 297.213 45.1025 296.787 45.1025H295.892V49.4293H296.787Z" fill="#FBC205"/>
<path d="M45.4877 45.477C45.4886 45.4768 45.4896 45.4772 45.4899 45.4781C45.8963 46.4226 46.2777 47.3394 46.8347 48.1867C47.0781 48.5571 47.5928 48.5895 47.9159 48.2861C47.9744 48.2313 48.0329 48.1764 48.0919 48.1209C48.2196 48.0011 48.413 47.9643 48.5653 48.0506V48.0506C49.2453 48.4414 49.4028 49.0357 49.2241 49.8685C48.9688 51.0761 48.425 51.9302 47.3302 52.233C46.1871 52.5492 45.0055 52.0995 44.3719 51.0996C43.8733 50.312 43.6271 49.4095 43.4612 48.4709V48.4709C43.4002 48.1277 43.0673 47.9001 42.7209 47.9396C42.7163 47.9401 42.7117 47.9406 42.7072 47.9411C42.3768 47.9788 42.1198 48.2465 42.0969 48.5783C42.0505 49.2501 42.0046 49.913 41.9581 50.5839C41.9028 51.3816 41.4828 52.1868 40.6887 52.2798V52.2798C39.698 52.3958 39.0604 51.3771 39.0369 50.38C39.0028 48.9373 38.9689 47.4988 38.9602 46.0588C38.9495 44.305 38.9742 42.5522 38.9883 40.7631C38.9916 40.3431 38.7091 39.9745 38.3026 39.8685C38.2648 39.8586 38.2273 39.8489 38.1902 39.8392C38.0594 39.8051 37.8934 39.7517 37.8655 39.6194V39.6194C37.4864 37.8351 37.5641 37.6021 39.1447 37.0506C39.7611 36.835 40.482 36.8471 41.1314 36.9517C42.0925 37.1053 42.4567 37.6702 42.4605 38.7992C42.4619 39.9323 42.4114 41.0659 42.3747 42.1991C42.3406 43.2415 42.2887 44.282 42.2547 45.3244V45.3244C42.2453 45.6789 42.7846 45.9751 42.9719 45.6739C42.9815 45.6584 42.9898 45.6422 42.9965 45.6253C43.6715 43.8926 44.3088 42.1357 44.9486 40.3884V40.3884C45.0159 40.2124 44.8126 40.042 44.6353 39.9782C44.5616 39.9516 44.4882 39.9251 44.4152 39.8988C44.1398 39.7995 43.9315 39.5654 43.8761 39.2779C43.581 37.7466 43.8462 37.6092 45.1927 37.0972C45.8046 36.8655 46.5218 36.8647 47.1776 36.9295C48.0552 37.0195 48.5966 37.7988 48.6523 38.8025C48.6955 39.5601 48.5466 40.2876 48.2122 40.9209C47.6193 42.0485 46.9762 43.145 46.3323 44.2382C46.0812 44.667 45.7767 45.0519 45.4857 45.4742C45.4847 45.4756 45.4861 45.4775 45.4877 45.477V45.477Z" fill="#2B48A1"/>
<path d="M96.8544 41.6416C96.7885 41.0151 96.7461 40.3855 96.6375 39.7673C96.6121 39.6253 96.3812 39.4673 96.2232 39.4348C95.8819 39.3663 95.5258 39.3573 95.1748 39.3538C94.8407 39.3492 94.6694 39.1435 94.6383 38.8055C94.6026 38.4132 94.5795 38.0037 94.6356 37.6172C94.6639 37.4188 94.8526 37.1863 95.0205 37.0914C96.0922 36.4795 97.2405 36.3699 98.408 36.5808C98.8965 36.6675 99.2428 37.0675 99.3622 37.5995C99.5192 38.3048 99.7029 39.0443 99.6785 39.7582C99.5783 42.5417 99.401 45.3222 99.2489 48.1062C99.2387 48.304 99.2222 48.5012 99.2026 48.7094C99.1671 49.088 99.5104 49.3898 99.8805 49.3025C99.8982 49.2983 99.9157 49.2942 99.9332 49.29C100.044 49.2639 100.193 49.2495 100.251 49.3474V49.3474C100.965 50.5503 100.903 51.0179 99.9073 51.8654C99.3604 52.3321 98.7778 52.6943 98.058 52.6611C97.1873 52.6212 96.7059 52.1338 96.6505 51.1439C96.6301 50.7821 96.7061 50.4179 96.7368 50.0524C96.755 49.8283 96.7649 49.6038 96.7761 49.3786C96.7786 49.3293 96.7468 49.2841 96.7003 49.2676V49.2676C96.6504 49.2498 96.5958 49.2701 96.5679 49.3151C96.4881 49.4439 96.4027 49.5695 96.34 49.708C96.0958 50.2539 95.8936 50.8264 95.6221 51.3486C94.6695 53.1685 92.4316 52.9728 91.5232 51.4805C91.224 50.9878 90.9778 50.4112 90.8482 49.83C90.4112 47.8988 90.4057 45.9487 90.8714 44.0104C90.9066 43.862 90.9574 43.7197 91.005 43.5783C91.9419 40.6743 93.9777 40.3019 95.9382 41.3369C96.1092 41.4261 96.2772 41.5232 96.4456 41.6184C96.5715 41.6895 96.7251 41.6961 96.8558 41.6343V41.6343M94.0775 48.8848C94.1482 49.3058 94.7029 49.4378 94.9963 49.1278C95.7717 48.3084 96.342 47.3957 96.5061 46.2477C96.7139 44.7933 96.667 44.574 95.1977 44.2247C94.4191 44.0414 94.1814 44.2597 94.0211 45.1463C93.7952 46.3978 93.8764 47.644 94.0775 48.8848V48.8848Z" fill="#2B48A1"/>
<path d="M87.6449 49.6136C87.7721 49.564 87.8893 49.5184 88.0003 49.4753C88.5494 49.2621 89.2396 49.446 89.4618 49.9915V49.9915C89.7303 50.6487 89.6812 50.8598 89.218 51.3658C88.3268 52.3298 87.329 52.8831 86.0659 52.4144C85.5022 52.2063 85.1155 51.8106 85.0819 51.1128C85.046 50.3185 85.0481 49.5241 85.0673 48.7285C85.0948 47.7503 85.1596 46.7687 85.2082 45.7916C85.215 45.6407 85.2518 45.4606 85.1937 45.3381C85.1148 45.1657 84.9861 44.976 84.8403 44.9124C84.7419 44.8702 84.5032 44.9848 84.4494 45.1037C83.8987 46.2959 83.2556 47.4548 82.8915 48.7202C82.6939 49.4092 82.9475 50.2888 83.0625 51.0681C83.2034 52.0414 83.1726 52.1677 82.3416 52.4218C81.6546 52.6326 80.9625 52.6369 80.2734 52.4011C79.9178 52.2811 79.7253 52.0362 79.7036 51.6193C79.6862 51.2809 79.6487 50.9447 79.6598 50.6088C79.7091 48.6817 79.7714 46.7511 79.8272 44.8222C79.8291 44.7488 79.8303 44.6752 79.8311 44.6C79.8346 44.2736 79.6001 43.9854 79.2836 43.9055V43.9055C79.0694 43.8513 78.8997 43.7047 78.8245 43.497C78.7184 43.2037 78.6572 42.9386 78.6289 42.6128C78.5645 41.8741 78.9417 41.1212 79.6439 40.8829C80.2795 40.6672 80.9545 40.6731 81.6571 40.8982C82.3304 41.1141 82.5742 41.7573 82.5521 42.4671C82.5247 43.3205 82.3844 44.1669 82.2969 45.0161C82.2631 45.3303 82.2451 45.6488 82.2221 45.9642C82.2184 46.0154 82.249 46.0629 82.2975 46.0797V46.0797C82.3467 46.0968 82.4014 46.0793 82.4344 46.039C82.5141 45.9418 82.6056 45.8491 82.6414 45.7354C82.8175 45.1564 82.9141 44.5404 83.1395 43.9893C83.4526 43.2163 83.7891 42.4404 84.2309 41.7567C84.9303 40.6758 85.9558 40.5863 87.0097 40.8876C87.9542 41.1567 88.3806 41.9712 88.5862 43.0028C88.8124 44.1465 88.674 45.2629 88.4461 46.3693C88.2805 47.1742 88.0431 47.9574 87.8432 48.7511C87.7871 48.9746 87.7434 49.205 87.6578 49.61" fill="#2B48A1"/>
<path d="M58.8354 48.9506C59.6964 50.1336 59.6604 50.7052 58.6669 51.5623C58.1273 52.0304 57.5482 52.4055 56.8287 52.3861C55.9171 52.361 55.4459 51.8604 55.3979 50.8095C55.3898 50.6293 55.391 50.4487 55.3701 50.2574C55.3479 50.0538 55.0564 50.0045 55.0009 50.2017V50.2017C54.5311 51.8742 53.7629 52.2427 52.2463 52.3363C51.3431 52.392 50.7359 51.7384 50.3244 50.9024C49.7312 49.6972 49.7594 48.4207 50.2549 47.1918C50.6252 46.2748 51.363 45.8592 52.2144 45.804C52.7727 45.7675 53.3392 45.8604 53.8976 45.9243V45.9243C54.4695 45.9879 55.0725 45.6942 55.0605 45.1189C55.0464 44.4363 54.659 44.1152 53.8441 44.0638C53.262 44.0272 52.6714 44.1351 52.0906 44.216V44.216C51.4616 44.3004 50.804 44.1293 50.5851 43.5335C50.4559 43.1817 50.3692 42.8165 50.3062 42.439C50.2277 41.9547 50.3663 41.6286 50.7575 41.3887C51.7581 40.7827 52.8385 40.5532 53.9509 40.5644C54.5906 40.5712 55.2367 40.6767 55.8698 40.8101C57.1214 41.0741 57.896 42.0072 58.1469 43.4284C58.3575 44.6284 58.202 45.8084 58.0214 46.9849C57.9658 47.3424 57.9009 47.6976 57.8298 48.0693C57.7185 48.6516 58.2692 49.1368 58.8313 48.9482V48.9482M54.9969 47.7556C54.5242 47.7511 54.0497 47.7021 53.5875 47.7606C53.1681 47.8108 52.9598 48.3363 53.0606 48.9012C53.1374 49.3167 53.3902 49.5414 53.7385 49.4971C54.3082 49.4262 54.9323 48.6123 54.9937 47.7564" fill="#2B48A1"/>
<path d="M76.7027 48.6783C77.1335 49.0202 77.2995 49.47 77.3329 49.9668C77.3472 50.1813 77.2794 50.4877 77.1489 50.6174C75.7426 51.9873 74.163 52.8437 72.2628 52.3778C70.4565 51.938 69.4815 50.5057 69.0473 48.5598C68.717 47.0774 68.7673 45.5799 69.1799 44.1139C69.7505 42.0911 71.0515 40.9167 72.9085 40.7255C73.8593 40.6289 74.7863 40.7469 75.6907 41.0965C76.6114 41.4553 77.1656 42.1929 77.388 43.2476C77.4744 43.6605 77.5249 44.0937 77.5249 44.52C77.5219 45.1483 77.646 45.835 77.1484 46.3296C76.5171 46.9548 75.883 47.5947 74.9583 47.535C74.2349 47.489 73.5098 47.4365 72.7865 47.3904V47.3904C72.486 47.3695 72.2308 47.6274 72.2676 47.9263C72.4053 49.0458 73.0987 49.6716 74.1069 49.5072C74.7139 49.4086 75.3064 49.1823 75.9033 48.9965C76.1839 48.9084 76.4572 48.7809 76.71 48.6798M74.5099 45.4752C74.6602 43.9882 74.2453 44.0544 73.4401 43.9755C73.2832 43.96 73.0979 43.9419 72.9651 44.0133C72.7669 44.1236 72.5275 44.273 72.4426 44.4802V44.4802C72.195 45.0671 72.8078 45.6689 73.4406 45.5968C73.812 45.5545 74.1653 45.5141 74.5132 45.4743" fill="#2B48A1"/>
<path d="M65.2645 49.2453C65.9773 50.5942 65.864 51.1247 64.7191 51.8608C63.9157 52.3776 63.0778 52.5816 62.159 52.2673C61.5197 52.0489 61.1515 51.5822 61.0484 50.8586C60.9829 50.4087 60.9519 49.9459 60.9576 49.4902C60.9763 47.991 61.0193 46.492 61.0517 44.9925C61.0545 44.8271 61.0556 44.6621 61.0564 44.4942C61.0579 44.1839 60.8658 43.9046 60.5761 43.7935V43.7935C60.3229 43.6963 60.1439 43.4689 60.1019 43.2009C60.0489 42.8627 59.9932 42.5098 59.972 42.1541C59.9228 41.3496 59.9738 41.2835 60.5916 40.9601C61.2213 40.63 61.8711 40.523 62.5573 40.6729C63.4318 40.8644 63.8372 41.3277 63.8432 42.3521C63.846 43.0515 63.7378 43.7504 63.6635 44.4469C63.6284 44.7887 63.5723 45.1276 63.523 45.469C63.5146 45.5274 63.5462 45.5842 63.5998 45.6088V45.6088C63.6572 45.6352 63.7251 45.6159 63.7647 45.5666C63.8517 45.4582 63.9494 45.3523 63.9828 45.2252C64.1794 44.4949 64.3179 43.7425 64.5301 43.0183C64.6818 42.5014 64.8758 41.9868 65.1211 41.5203C65.4122 40.9683 65.872 40.6505 66.4577 40.6376C67.5854 40.6168 68.0136 41.0496 68.0903 42.3421C68.1201 42.8467 68.0985 43.3449 68.0123 43.8498C67.8803 44.6233 67.1152 45.0121 66.3308 44.9918V44.9918C66.1142 44.9858 65.8079 45.0186 65.6862 45.1805C64.8067 46.3493 64.1113 47.6578 63.6177 49.0942V49.0942C63.5362 49.3278 63.8378 49.526 64.0805 49.4777C64.4743 49.3992 64.8535 49.3231 65.2604 49.243" fill="#2B48A1"/>
</g>
<rect x="30.3828" y="104.801" width="37.9855" height="27.6259" rx="4.31654" fill="#BDB4A3" stroke="#070707" stroke-width="0.431654"/>
<rect x="57.1445" y="104.801" width="27.6259" height="15.5395" rx="7.76977" transform="rotate(90 57.1445 104.801)" stroke="#070707" stroke-width="0.431654"/>
<line x1="57.3604" y1="113.218" x2="68.1517" y2="113.218" stroke="#070707" stroke-width="0.431654" stroke-linecap="round"/>
<line x1="68.1553" y1="124.011" x2="57.3639" y2="124.011" stroke="#070707" stroke-width="0.431654" stroke-linecap="round"/>
<line x1="30.5947" y1="113.218" x2="41.3861" y2="113.218" stroke="#070707" stroke-width="0.431654" stroke-linecap="round"/>
<line x1="41.3896" y1="124.011" x2="30.5983" y2="124.011" stroke="#070707" stroke-width="0.431654" stroke-linecap="round"/>
</g>
</g>
<defs>
<filter id="filter0_d_2760_92266" x="0.577781" y="0.933946" width="329.122" height="214.497" filterUnits="userSpaceOnUse" color-interpolation-filters="sRGB">
<feFlood flood-opacity="0" result="BackgroundImageFix"/>
<feColorMatrix in="SourceAlpha" type="matrix" values="0 0 0 0 0 0 0 0 0 0 0 0 0 0 0 0 0 0 127 0" result="hardAlpha"/>
<feOffset dy="1.22921"/>
<feGaussianBlur stdDeviation="4.60955"/>
<feComposite in2="hardAlpha" operator="out"/>
<feColorMatrix type="matrix" values="0 0 0 0 0 0 0 0 0 0 0 0 0 0 0 0 0 0 0.46 0"/>
<feBlend mode="normal" in2="BackgroundImageFix" result="effect1_dropShadow_2760_92266"/>
<feBlend mode="normal" in="SourceGraphic" in2="effect1_dropShadow_2760_92266" result="shape"/>
</filter>
<clipPath id="clip0_2760_92266">
<rect x="9.79688" y="8.92383" width="310.683" height="196.059" rx="11.5239" fill="white"/>
</clipPath>
<clipPath id="clip1_2760_92266">
<rect width="270.427" height="168.402" fill="white" transform="translate(29.918 22.75)"/>
</clipPath>
</defs>
</svg>
