<svg width="330" height="215" viewBox="0 0 330 215" fill="none" xmlns="http://www.w3.org/2000/svg">
<g filter="url(#filter0_d_2760_92266)">
<g clip-path="url(#clip0_2760_92266)">
<rect x="10" y="8" width="310.683" height="196.059" rx="11.5239" fill="#152451"/>
<circle cx="89.5248" cy="82.0463" r="107.556" fill="#203679"/>
<circle cx="74.1597" cy="66.6812" r="92.1909" fill="#2B48A1"/>
<circle cx="58.7945" cy="51.316" r="76.8258" fill="#C99B03"/>
<circle cx="43.4294" cy="35.9509" r="61.4606" fill="#FBC205"/>
<circle cx="28.0642" cy="20.5857" r="46.0955" fill="#FBC205"/>
<g clip-path="url(#clip1_2760_92266)">
<path d="M30.7726 180.194C30.7726 178.776 31.0266 177.666 31.5347 176.863C32.051 176.06 32.9032 175.658 34.0915 175.658C35.2797 175.658 36.1278 176.06 36.6359 176.863C37.1522 177.666 37.4103 178.776 37.4103 180.194C37.4103 181.62 37.1522 182.738 36.6359 183.55C36.1278 184.361 35.2797 184.766 34.0915 184.766C32.9032 184.766 32.051 184.361 31.5347 183.55C31.0266 182.738 30.7726 181.62 30.7726 180.194ZM35.714 180.194C35.714 179.587 35.673 179.079 35.5911 178.67C35.5173 178.252 35.3616 177.912 35.124 177.649C34.8945 177.387 34.5504 177.256 34.0915 177.256C33.6325 177.256 33.2843 177.387 33.0466 177.649C32.8172 177.912 32.6615 178.252 32.5795 178.67C32.5058 179.079 32.4689 179.587 32.4689 180.194C32.4689 180.817 32.5058 181.341 32.5795 181.767C32.6533 182.185 32.809 182.525 33.0466 182.787C33.2843 183.041 33.6325 183.168 34.0915 183.168C34.5504 183.168 34.8986 183.041 35.1363 182.787C35.3739 182.525 35.5296 182.185 35.6034 181.767C35.6771 181.341 35.714 180.817 35.714 180.194ZM38.5103 177.416V175.83H41.4727V184.791H39.7026V177.416H38.5103ZM43.7136 182.849C44.5003 182.193 45.1272 181.648 45.5943 181.214C46.0614 180.771 46.4506 180.313 46.762 179.837C47.0734 179.362 47.2291 178.895 47.2291 178.436C47.2291 178.018 47.1308 177.69 46.9341 177.453C46.7375 177.215 46.4342 177.096 46.0245 177.096C45.6148 177.096 45.2993 177.235 45.078 177.514C44.8568 177.785 44.742 178.157 44.7338 178.633H43.0621C43.0949 177.649 43.3858 176.904 43.9348 176.395C44.4921 175.887 45.1968 175.633 46.0491 175.633C46.9833 175.633 47.7003 175.883 48.2002 176.383C48.7001 176.875 48.95 177.526 48.95 178.338C48.95 178.977 48.7779 179.587 48.4338 180.169C48.0896 180.751 47.6962 181.259 47.2537 181.693C46.8112 182.12 46.2335 182.636 45.5205 183.242H49.1467V184.668H43.0744V183.39L43.7136 182.849ZM50.2557 178.19C50.2967 177.371 50.5835 176.74 51.1161 176.297C51.657 175.846 52.3658 175.621 53.2427 175.621C53.8409 175.621 54.3531 175.728 54.7792 175.941C55.2053 176.146 55.5249 176.428 55.738 176.789C55.9592 177.141 56.0699 177.543 56.0699 177.993C56.0699 178.51 55.9347 178.948 55.6642 179.309C55.402 179.661 55.0865 179.899 54.7177 180.022V180.071C55.193 180.218 55.5618 180.481 55.824 180.858C56.0945 181.234 56.2297 181.718 56.2297 182.308C56.2297 182.8 56.1149 183.238 55.8855 183.623C55.6642 184.008 55.3323 184.312 54.8898 184.533C54.4555 184.746 53.931 184.852 53.3164 184.852C52.3904 184.852 51.6365 184.619 51.0547 184.152C50.4729 183.685 50.1655 182.996 50.1328 182.087H51.8045C51.8209 182.488 51.9561 182.812 52.2101 183.058C52.4724 183.295 52.8288 183.414 53.2796 183.414C53.6975 183.414 54.0171 183.3 54.2383 183.07C54.4678 182.832 54.5825 182.529 54.5825 182.161C54.5825 181.669 54.4268 181.316 54.1154 181.103C53.804 180.89 53.3205 180.784 52.6649 180.784H52.3085V179.37H52.6649C53.8286 179.37 54.4104 178.981 54.4104 178.202C54.4104 177.85 54.3039 177.576 54.0908 177.379C53.886 177.182 53.5869 177.084 53.1935 177.084C52.8084 177.084 52.5092 177.19 52.2962 177.403C52.0913 177.608 51.9725 177.871 51.9397 178.19H50.2557ZM60.4448 183.046V181.693L64.4643 175.941H66.4679V181.546H67.5497V183.046H66.4679V184.791H64.747V183.046H60.4448ZM64.8577 177.785L62.3378 181.546H64.8577V177.785ZM74.6684 177.317H70.6858V179.419C70.8579 179.206 71.1037 179.034 71.4233 178.903C71.7429 178.764 72.083 178.694 72.4436 178.694C73.0991 178.694 73.6359 178.838 74.0538 179.124C74.4718 179.411 74.775 179.78 74.9634 180.231C75.1519 180.673 75.2462 181.148 75.2462 181.657C75.2462 182.599 74.9757 183.357 74.4349 183.931C73.9022 184.504 73.1401 184.791 72.1485 184.791C71.2143 184.791 70.4686 184.557 69.9114 184.09C69.3541 183.623 69.0386 183.013 68.9649 182.259H70.6366C70.7104 182.587 70.8743 182.849 71.1283 183.046C71.3905 183.242 71.7224 183.341 72.124 183.341C72.6074 183.341 72.9721 183.189 73.218 182.886C73.4638 182.583 73.5867 182.181 73.5867 181.681C73.5867 181.173 73.4597 180.788 73.2057 180.526C72.9598 180.255 72.5952 180.12 72.1117 180.12C71.7675 180.12 71.4807 180.206 71.2512 180.378C71.0218 180.55 70.8579 180.78 70.7595 181.067H69.1124V175.805H74.6684V177.317ZM81.2024 178.067C81.1204 177.723 80.977 177.465 80.7721 177.293C80.5755 177.121 80.2886 177.035 79.9117 177.035C79.3463 177.035 78.9283 177.264 78.6579 177.723C78.3957 178.174 78.2604 178.911 78.2523 179.936C78.4489 179.608 78.7357 179.354 79.1127 179.174C79.4897 178.985 79.8994 178.891 80.3419 178.891C80.8746 178.891 81.3458 179.006 81.7555 179.235C82.1652 179.464 82.4848 179.8 82.7143 180.243C82.9437 180.677 83.0585 181.202 83.0585 181.816C83.0585 182.398 82.9397 182.919 82.702 183.377C82.4725 183.828 82.1325 184.181 81.6818 184.435C81.231 184.689 80.6943 184.816 80.0715 184.816C79.2192 184.816 78.5473 184.627 78.0556 184.25C77.5721 183.873 77.232 183.349 77.0353 182.677C76.8469 181.997 76.7526 181.161 76.7526 180.169C76.7526 178.67 77.0107 177.539 77.527 176.777C78.0433 176.006 78.8587 175.621 79.9732 175.621C80.8336 175.621 81.5015 175.855 81.9768 176.322C82.4521 176.789 82.7266 177.371 82.8003 178.067H81.2024ZM79.9486 180.304C79.5142 180.304 79.1496 180.431 78.8546 180.685C78.5596 180.939 78.4121 181.308 78.4121 181.792C78.4121 182.275 78.5473 182.656 78.8177 182.935C79.0963 183.214 79.4856 183.353 79.9854 183.353C80.428 183.353 80.7762 183.218 81.0303 182.947C81.2925 182.677 81.4236 182.312 81.4236 181.853C81.4236 181.378 81.2966 181.001 81.0426 180.722C80.7967 180.444 80.4321 180.304 79.9486 180.304ZM90.1221 177.133L86.8524 184.791H85.1069L88.4012 177.33H84.1973V175.855H90.1221V177.133ZM95.5815 180.046C94.762 179.62 94.3522 178.96 94.3522 178.067C94.3522 177.625 94.4629 177.223 94.6841 176.863C94.9136 176.494 95.2537 176.203 95.7044 175.99C96.1633 175.769 96.7205 175.658 97.3761 175.658C98.0317 175.658 98.5848 175.769 99.0355 175.99C99.4945 176.203 99.8345 176.494 100.056 176.863C100.285 177.223 100.4 177.625 100.4 178.067C100.4 178.518 100.289 178.915 100.068 179.26C99.8468 179.596 99.5518 179.858 99.1831 180.046C99.6338 180.243 99.9861 180.53 100.24 180.907C100.494 181.284 100.621 181.73 100.621 182.247C100.621 182.804 100.478 183.291 100.191 183.709C99.9124 184.119 99.5272 184.435 99.0355 184.656C98.5439 184.877 97.9907 184.988 97.3761 184.988C96.7615 184.988 96.2084 184.877 95.7167 184.656C95.2332 184.435 94.848 184.119 94.5612 183.709C94.2826 183.291 94.1433 182.804 94.1433 182.247C94.1433 181.73 94.2703 181.284 94.5243 180.907C94.7784 180.522 95.1307 180.235 95.5815 180.046ZM98.7282 178.313C98.7282 177.912 98.6053 177.6 98.3595 177.379C98.1218 177.158 97.794 177.047 97.3761 177.047C96.9664 177.047 96.6386 177.158 96.3927 177.379C96.1551 177.6 96.0363 177.916 96.0363 178.325C96.0363 178.694 96.1592 178.989 96.405 179.21C96.6591 179.432 96.9828 179.542 97.3761 179.542C97.7695 179.542 98.0931 179.432 98.3472 179.21C98.6012 178.981 98.7282 178.682 98.7282 178.313ZM97.3761 180.796C96.909 180.796 96.528 180.915 96.2329 181.153C95.9461 181.39 95.8027 181.73 95.8027 182.173C95.8027 182.583 95.942 182.919 96.2206 183.181C96.5075 183.435 96.8926 183.562 97.3761 183.562C97.8596 183.562 98.2407 183.431 98.5193 183.168C98.7979 182.906 98.9372 182.574 98.9372 182.173C98.9372 181.738 98.7938 181.402 98.507 181.165C98.2202 180.919 97.8432 180.796 97.3761 180.796ZM103.972 182.271C104.037 182.632 104.185 182.91 104.414 183.107C104.652 183.295 104.967 183.39 105.361 183.39C105.869 183.39 106.238 183.181 106.467 182.763C106.697 182.337 106.811 181.624 106.811 180.624C106.623 180.886 106.356 181.091 106.012 181.239C105.676 181.386 105.312 181.46 104.918 181.46C104.394 181.46 103.919 181.353 103.492 181.14C103.074 180.919 102.743 180.595 102.497 180.169C102.251 179.735 102.128 179.21 102.128 178.596C102.128 177.686 102.398 176.965 102.939 176.432C103.48 175.892 104.218 175.621 105.152 175.621C106.315 175.621 107.135 175.994 107.61 176.74C108.094 177.485 108.335 178.608 108.335 180.108C108.335 181.173 108.241 182.046 108.053 182.726C107.872 183.406 107.557 183.922 107.106 184.275C106.664 184.627 106.057 184.803 105.287 184.803C104.681 184.803 104.164 184.689 103.738 184.459C103.312 184.221 102.984 183.914 102.755 183.537C102.534 183.152 102.407 182.73 102.374 182.271H103.972ZM105.275 180.059C105.701 180.059 106.037 179.927 106.283 179.665C106.529 179.403 106.651 179.051 106.651 178.608C106.651 178.125 106.52 177.752 106.258 177.489C106.004 177.219 105.656 177.084 105.213 177.084C104.771 177.084 104.418 177.223 104.156 177.502C103.902 177.772 103.775 178.133 103.775 178.583C103.775 179.018 103.898 179.374 104.144 179.653C104.398 179.923 104.775 180.059 105.275 180.059ZM109.466 177.416V175.83H112.428V184.791H110.658V177.416H109.466ZM114.129 180.194C114.129 178.776 114.383 177.666 114.891 176.863C115.407 176.06 116.259 175.658 117.447 175.658C118.636 175.658 119.484 176.06 119.992 176.863C120.508 177.666 120.766 178.776 120.766 180.194C120.766 181.62 120.508 182.738 119.992 183.55C119.484 184.361 118.636 184.766 117.447 184.766C116.259 184.766 115.407 184.361 114.891 183.55C114.383 182.738 114.129 181.62 114.129 180.194ZM119.07 180.194C119.07 179.587 119.029 179.079 118.947 178.67C118.873 178.252 118.718 177.912 118.48 177.649C118.251 177.387 117.906 177.256 117.447 177.256C116.989 177.256 116.64 177.387 116.403 177.649C116.173 177.912 116.017 178.252 115.935 178.67C115.862 179.079 115.825 179.587 115.825 180.194C115.825 180.817 115.862 181.341 115.935 181.767C116.009 182.185 116.165 182.525 116.403 182.787C116.64 183.041 116.989 183.168 117.447 183.168C117.906 183.168 118.255 183.041 118.492 182.787C118.73 182.525 118.886 182.185 118.959 181.767C119.033 181.341 119.07 180.817 119.07 180.194ZM124.795 177.416V175.83H127.758V184.791H125.988V177.416H124.795ZM129.249 177.416V175.83H132.211V184.791H130.441V177.416H129.249ZM133.702 177.416V175.83H136.665V184.791H134.895V177.416H133.702ZM138.906 182.849C139.692 182.193 140.319 181.648 140.786 181.214C141.253 180.771 141.643 180.313 141.954 179.837C142.265 179.362 142.421 178.895 142.421 178.436C142.421 178.018 142.323 177.69 142.126 177.453C141.929 177.215 141.626 177.096 141.216 177.096C140.807 177.096 140.491 177.235 140.27 177.514C140.049 177.785 139.934 178.157 139.926 178.633H138.254C138.287 177.649 138.578 176.904 139.127 176.395C139.684 175.887 140.389 175.633 141.241 175.633C142.175 175.633 142.892 175.883 143.392 176.383C143.892 176.875 144.142 177.526 144.142 178.338C144.142 178.977 143.97 179.587 143.626 180.169C143.282 180.751 142.888 181.259 142.446 181.693C142.003 182.12 141.425 182.636 140.712 183.242H144.339V184.668H138.266V183.39L138.906 182.849Z" fill="#EEE6FF"/>
<path d="M179.386 178.659C179.386 177.241 179.64 176.131 180.148 175.327C180.664 174.524 181.516 174.123 182.705 174.123C183.893 174.123 184.741 174.524 185.249 175.327C185.765 176.131 186.024 177.241 186.024 178.659C186.024 180.084 185.765 181.203 185.249 182.014C184.741 182.826 183.893 183.231 182.705 183.231C181.516 183.231 180.664 182.826 180.148 182.014C179.64 181.203 179.386 180.084 179.386 178.659ZM184.327 178.659C184.327 178.052 184.286 177.544 184.204 177.134C184.131 176.716 183.975 176.376 183.737 176.114C183.508 175.852 183.164 175.721 182.705 175.721C182.246 175.721 181.898 175.852 181.66 176.114C181.43 176.376 181.275 176.716 181.193 177.134C181.119 177.544 181.082 178.052 181.082 178.659C181.082 179.281 181.119 179.806 181.193 180.232C181.267 180.65 181.422 180.99 181.66 181.252C181.898 181.506 182.246 181.633 182.705 181.633C183.164 181.633 183.512 181.506 183.75 181.252C183.987 180.99 184.143 180.65 184.217 180.232C184.29 179.806 184.327 179.281 184.327 178.659ZM187.738 175.881V174.295H190.701V183.256H188.931V175.881H187.738ZM197.821 171.615L194.503 185.481H192.819L196.137 171.615H197.821ZM200.149 181.314C200.935 180.658 201.562 180.113 202.029 179.679C202.496 179.236 202.886 178.777 203.197 178.302C203.509 177.827 203.664 177.36 203.664 176.901C203.664 176.483 203.566 176.155 203.369 175.917C203.173 175.68 202.869 175.561 202.46 175.561C202.05 175.561 201.734 175.7 201.513 175.979C201.292 176.249 201.177 176.622 201.169 177.098H199.497C199.53 176.114 199.821 175.368 200.37 174.86C200.927 174.352 201.632 174.098 202.484 174.098C203.418 174.098 204.135 174.348 204.635 174.848C205.135 175.34 205.385 175.991 205.385 176.802C205.385 177.442 205.213 178.052 204.869 178.634C204.525 179.216 204.131 179.724 203.689 180.158C203.246 180.584 202.669 181.101 201.956 181.707H205.582V183.133H199.51V181.855L200.149 181.314ZM213.304 175.782H209.321V177.884C209.493 177.671 209.739 177.499 210.059 177.368C210.378 177.229 210.719 177.159 211.079 177.159C211.735 177.159 212.271 177.302 212.689 177.589C213.107 177.876 213.41 178.245 213.599 178.695C213.787 179.138 213.882 179.613 213.882 180.121C213.882 181.064 213.611 181.822 213.07 182.395C212.538 182.969 211.776 183.256 210.784 183.256C209.85 183.256 209.104 183.022 208.547 182.555C207.99 182.088 207.674 181.478 207.6 180.724H209.272C209.346 181.051 209.51 181.314 209.764 181.51C210.026 181.707 210.358 181.805 210.759 181.805C211.243 181.805 211.608 181.654 211.853 181.351C212.099 181.047 212.222 180.646 212.222 180.146C212.222 179.638 212.095 179.253 211.841 178.99C211.595 178.72 211.231 178.585 210.747 178.585C210.403 178.585 210.116 178.671 209.887 178.843C209.657 179.015 209.493 179.245 209.395 179.531H207.748V174.27H213.304V175.782Z" fill="#EEE6FF"/>
<path d="M286.289 187.666H275.715V168.818H286.289V187.666Z" fill="#FF5F00"/>
<path d="M276.395 178.24C276.395 174.417 278.2 171.011 281.011 168.817C278.955 167.212 276.361 166.254 273.542 166.254C266.867 166.254 261.457 171.62 261.457 178.24C261.457 184.86 266.867 190.227 273.542 190.227C276.361 190.227 278.955 189.269 281.011 187.664C278.2 185.469 276.395 182.063 276.395 178.24" fill="#EB001B"/>
<path d="M300.551 178.24C300.551 184.86 295.14 190.227 288.466 190.227C285.647 190.227 283.052 189.269 280.996 187.664C283.808 185.469 285.613 182.063 285.613 178.24C285.613 174.417 283.808 171.011 280.996 168.817C283.052 167.212 285.647 166.254 288.466 166.254C295.14 166.254 300.551 171.62 300.551 178.24" fill="#F79E1B"/>
<path d="M41.9995 31.9946C42.0003 31.9943 42.0013 31.9948 42.0016 31.9956C42.408 32.9402 42.7895 33.8569 43.3464 34.7043C43.5899 35.0747 44.1045 35.1071 44.4277 34.8037C44.4861 34.7488 44.5446 34.6939 44.6036 34.6385C44.7313 34.5187 44.9247 34.4819 45.077 34.5682V34.5682C45.7571 34.959 45.9145 35.5533 45.7358 36.3861C45.4805 37.5937 44.9367 38.4478 43.8419 38.7506C42.6988 39.0667 41.5172 38.6171 40.8836 37.6172C40.385 36.8296 40.1389 35.9271 39.9729 34.9885V34.9885C39.9119 34.6453 39.579 34.4176 39.2326 34.4571C39.228 34.4577 39.2235 34.4582 39.2189 34.4587C38.8885 34.4964 38.6315 34.7641 38.6086 35.0958C38.5622 35.7676 38.5164 36.4306 38.4698 37.1015C38.4145 37.8991 37.9945 38.7044 37.2004 38.7973V38.7973C36.2098 38.9133 35.5722 37.8947 35.5486 36.8976C35.5145 35.4549 35.4806 34.0164 35.4719 32.5763C35.4612 30.8226 35.486 29.0698 35.5 27.2807C35.5033 26.8606 35.2208 26.4921 34.8143 26.3861C34.7765 26.3762 34.7391 26.3665 34.7019 26.3568C34.5711 26.3227 34.4051 26.2693 34.3772 26.137V26.137C33.9981 24.3526 34.0758 24.1197 35.6565 23.5681C36.2728 23.3526 36.9937 23.3647 37.6431 23.4693C38.6042 23.6229 38.9684 24.1877 38.9722 25.3167C38.9736 26.4499 38.9231 27.5835 38.8864 28.7167C38.8523 29.7591 38.8004 30.7995 38.7664 31.8419V31.8419C38.7571 32.1965 39.2964 32.4927 39.4836 32.1915C39.4932 32.176 39.5015 32.1598 39.5082 32.1429C40.1833 30.4101 40.8205 28.6532 41.4603 26.906V26.906C41.5276 26.7299 41.3243 26.5596 41.147 26.4957C41.0733 26.4692 40.9999 26.4427 40.9269 26.4164C40.6515 26.3171 40.4432 26.083 40.3878 25.7955C40.0927 24.2642 40.3579 24.1268 41.7044 23.6148C42.3163 23.3831 43.0335 23.3823 43.6893 23.4471C44.5669 23.5371 45.1083 24.3164 45.164 25.3201C45.2072 26.0777 45.0583 26.8052 44.7239 27.4385C44.131 28.5661 43.4879 29.6625 42.844 30.7558C42.5929 31.1845 42.2884 31.5695 41.9974 31.9918C41.9965 31.9932 41.9978 31.9951 41.9995 31.9946V31.9946Z" fill="#2B48A1"/>
<path d="M93.3661 28.1592C93.3003 27.5326 93.2578 26.9031 93.1492 26.2849C93.1238 26.1429 92.893 25.9849 92.7349 25.9523C92.3936 25.8838 92.0375 25.8748 91.6865 25.8714C91.3524 25.8667 91.1811 25.6611 91.15 25.323C91.1143 24.9308 91.0912 24.5212 91.1473 24.1348C91.1756 23.9363 91.3643 23.7039 91.5322 23.6089C92.6039 22.9971 93.7522 22.8875 94.9198 23.0984C95.4082 23.1851 95.7545 23.585 95.874 24.117C96.0309 24.8224 96.2146 25.5619 96.1902 26.2758C96.09 29.0593 95.9127 31.8398 95.7607 34.6238C95.7504 34.8216 95.7339 35.0188 95.7143 35.227C95.6788 35.6056 96.0221 35.9074 96.3922 35.8201C96.4099 35.8159 96.4275 35.8118 96.445 35.8076C96.5555 35.7814 96.7051 35.767 96.7625 35.865V35.865C97.4765 37.0679 97.4152 37.5355 96.419 38.383C95.8722 38.8497 95.2895 39.2119 94.5697 39.1787C93.699 39.1388 93.2176 38.6514 93.1622 37.6615C93.1418 37.2997 93.2179 36.9355 93.2485 36.57C93.2667 36.3459 93.2766 36.1214 93.2878 35.8962C93.2903 35.8468 93.2585 35.8017 93.212 35.7851V35.7851C93.1621 35.7674 93.1075 35.7877 93.0796 35.8327C92.9998 35.9615 92.9144 36.0871 92.8517 36.2256C92.6075 36.7715 92.4053 37.3439 92.1338 37.8662C91.1812 39.6861 88.9433 39.4904 88.0349 37.9981C87.7357 37.5054 87.4895 36.9287 87.36 36.3475C86.9229 34.4163 86.9174 32.4663 87.3831 30.528C87.4184 30.3796 87.4691 30.2373 87.5167 30.0959C88.4536 27.1919 90.4894 26.8195 92.4499 27.8545C92.621 27.9436 92.7889 28.0408 92.9573 28.136C93.0832 28.2071 93.2368 28.2137 93.3675 28.1519V28.1519M90.5892 35.4024C90.6599 35.8234 91.2146 35.9554 91.508 35.6454C92.2834 34.8259 92.8537 33.9133 93.0178 32.7653C93.2256 31.3109 93.1788 31.0916 91.7095 30.7423C90.9308 30.559 90.6931 30.7772 90.5328 31.6639C90.307 32.9154 90.3882 34.1616 90.5892 35.4024V35.4024Z" fill="#2B48A1"/>
<path d="M84.1566 36.1311C84.2838 36.0815 84.401 36.0359 84.512 35.9929C85.0611 35.7797 85.7513 35.9636 85.9736 36.5091V36.5091C86.242 37.1663 86.1929 37.3774 85.7297 37.8834C84.8385 38.8474 83.8407 39.4007 82.5776 38.932C82.014 38.7239 81.6272 38.3282 81.5936 37.6303C81.5577 36.8361 81.5599 36.0417 81.579 35.2461C81.6065 34.2679 81.6713 33.2863 81.72 32.3092C81.7268 32.1582 81.7636 31.9782 81.7054 31.8556C81.6265 31.6833 81.4978 31.4936 81.352 31.43C81.2537 31.3878 81.015 31.5024 80.9612 31.6212C80.4104 32.8135 79.7673 33.9723 79.4033 35.2377C79.2056 35.9268 79.4592 36.8064 79.5742 37.5857C79.7152 38.5589 79.6843 38.6853 78.8533 38.9394C78.1663 39.1502 77.4742 39.1545 76.7851 38.9187C76.4295 38.7986 76.237 38.5538 76.2153 38.1369C76.1979 37.7985 76.1604 37.4623 76.1715 37.1264C76.2209 35.1993 76.2831 33.2686 76.3389 31.3398C76.3408 31.2663 76.342 31.1928 76.3428 31.1176C76.3463 30.7912 76.1118 30.503 75.7954 30.4231V30.4231C75.5812 30.3689 75.4114 30.2223 75.3362 30.0145C75.2301 29.7213 75.169 29.4562 75.1406 29.1303C75.0763 28.3916 75.4535 27.6388 76.1556 27.4005C76.7913 27.1848 77.4663 27.1907 78.1689 27.4158C78.8421 27.6317 79.0859 28.2749 79.0638 28.9847C79.0364 29.838 78.8961 30.6845 78.8086 31.5337C78.7749 31.8479 78.7568 32.1664 78.7338 32.4817C78.7301 32.533 78.7607 32.5805 78.8093 32.5973V32.5973C78.8584 32.6144 78.9132 32.5969 78.9461 32.5566C79.0258 32.4594 79.1173 32.3667 79.1531 32.253C79.3292 31.674 79.4258 31.058 79.6512 30.5069C79.9643 29.7339 80.3008 28.958 80.7426 28.2742C81.442 27.1934 82.4675 27.1039 83.5215 27.4051C84.466 27.6743 84.8923 28.4888 85.0979 29.5204C85.3241 30.6641 85.1857 31.7805 84.9579 32.8869C84.7922 33.6918 84.5548 34.475 84.3549 35.2687C84.2988 35.4921 84.2551 35.7226 84.1695 36.1276" fill="#2B48A1"/>
<path d="M55.3471 35.4681C56.2081 36.6512 56.1721 37.2227 55.1786 38.0799C54.639 38.548 54.0599 38.9231 53.3405 38.9037C52.4288 38.8785 51.9576 38.378 51.9096 37.3271C51.9016 37.1469 51.9028 36.9663 51.8819 36.775C51.8596 36.5714 51.5681 36.5221 51.5127 36.7193V36.7193C51.0428 38.3918 50.2747 38.7602 48.758 38.8539C47.8548 38.9096 47.2476 38.2559 46.8362 37.42C46.2429 36.2148 46.2711 34.9383 46.7666 33.7094C47.1369 32.7923 47.8748 32.3768 48.7261 32.3216C49.2845 32.285 49.8509 32.3779 50.4094 32.4419V32.4419C50.9812 32.5054 51.5842 32.2118 51.5723 31.6365C51.5581 30.9539 51.1707 30.6328 50.3558 30.5814C49.7738 30.5448 49.1831 30.6527 48.6024 30.7336V30.7336C47.9733 30.818 47.3157 30.6468 47.0968 30.051C46.9676 29.6993 46.8809 29.3341 46.8179 28.9566C46.7394 28.4722 46.878 28.1462 47.2692 27.9063C48.2698 27.3002 49.3502 27.0707 50.4626 27.082C51.1023 27.0888 51.7485 27.1943 52.3816 27.3277C53.6331 27.5916 54.4077 28.5248 54.6586 29.9459C54.8692 31.146 54.7138 32.326 54.5331 33.5025C54.4775 33.86 54.4126 34.2152 54.3415 34.5868C54.2302 35.1692 54.7809 35.6543 55.343 35.4658V35.4658M51.5086 34.2732C51.0359 34.2687 50.5614 34.2197 50.0992 34.2782C49.6798 34.3283 49.4715 34.8539 49.5723 35.4188C49.6491 35.8343 49.902 36.059 50.2502 36.0147C50.8199 35.9438 51.444 35.1299 51.5054 34.274" fill="#2B48A1"/>
<path d="M73.2144 35.1959C73.6452 35.5378 73.8112 35.9876 73.8446 36.4844C73.8589 36.6988 73.7911 37.0053 73.6606 37.135C72.2543 38.5049 70.6747 39.3612 68.7746 38.8954C66.9683 38.4556 65.9932 37.0232 65.559 35.0774C65.2288 33.595 65.2791 32.0974 65.6917 30.6314C66.2623 28.6087 67.5632 27.4343 69.4203 27.2431C70.3711 27.1465 71.298 27.2645 72.2024 27.614C73.1232 27.9729 73.6773 28.7105 73.8997 29.7652C73.9862 30.178 74.0366 30.6112 74.0367 31.0376C74.0336 31.6658 74.1577 32.3525 73.6601 32.8472C73.0289 33.4724 72.3947 34.1123 71.47 34.0526C70.7467 34.0066 70.0216 33.9541 69.2982 33.908V33.908C68.9977 33.8871 68.7425 34.145 68.7793 34.4439C68.917 35.5634 69.6105 36.1892 70.6186 36.0248C71.2257 35.9262 71.8182 35.6999 72.415 35.5141C72.6957 35.426 72.9689 35.2985 73.2217 35.1973M71.0217 31.9928C71.1719 30.5057 70.757 30.572 69.9518 30.4931C69.7949 30.4776 69.6096 30.4595 69.4769 30.5309C69.2786 30.6412 69.0392 30.7906 68.9544 30.9977V30.9977C68.7068 31.5846 69.3195 32.1865 69.9524 32.1144C70.3237 32.0721 70.677 32.0316 71.0249 31.9919" fill="#2B48A1"/>
<path d="M61.7762 35.7629C62.489 37.1118 62.3757 37.6423 61.2308 38.3783C60.4275 38.8952 59.5896 39.0992 58.6707 38.7848C58.0314 38.5665 57.6632 38.0998 57.5601 37.3761C57.4946 36.9263 57.4636 36.4634 57.4693 36.0078C57.488 34.5086 57.531 33.0096 57.5634 31.5101C57.5662 31.3447 57.5674 31.1797 57.5681 31.0117C57.5696 30.7015 57.3775 30.4221 57.0878 30.311V30.311C56.8346 30.2139 56.6557 29.9865 56.6137 29.7185C56.5606 29.3803 56.5049 29.0274 56.4837 28.6716C56.4345 27.8672 56.4856 27.8011 57.1033 27.4777C57.733 27.1476 58.3829 27.0406 59.0691 27.1905C59.9435 27.382 60.349 27.8452 60.355 28.8696C60.3578 29.5691 60.2495 30.268 60.1752 30.9645C60.1401 31.3062 60.084 31.6451 60.0347 31.9866C60.0263 32.045 60.0579 32.1017 60.1115 32.1264V32.1264C60.169 32.1528 60.2368 32.1335 60.2764 32.0842C60.3634 31.9757 60.4611 31.8699 60.4945 31.7428C60.6911 31.0125 60.8296 30.2601 61.0418 29.5359C61.1935 29.019 61.3875 28.5043 61.6328 28.0378C61.9239 27.4859 62.3837 27.1681 62.9694 27.1552C64.0972 27.1344 64.5253 27.5672 64.602 28.8597C64.6318 29.3643 64.6102 29.8625 64.524 30.3674C64.392 31.1409 63.6269 31.5297 62.8425 31.5094V31.5094C62.626 31.5034 62.3196 31.5361 62.198 31.698C61.3184 32.8668 60.623 34.1753 60.1294 35.6118V35.6118C60.0479 35.8453 60.3496 36.0436 60.5922 35.9952C60.986 35.9167 61.3652 35.8407 61.7721 35.7606" fill="#2B48A1"/>
<path d="M231.968 29.583V31.1465H234.347V32.3069H231.968V33.9098H234.937V35.0898H230.611V28.4029H234.937V29.583H231.968ZM236.105 28.4029H237.462V35.0898H236.105V28.4029ZM242.37 33.8803H240.03L239.764 35.0898H238.407L239.912 28.4029H242.488L243.993 35.0898H242.636L242.37 33.8803ZM241.436 29.524H240.964L240.285 32.7003H242.114L241.436 29.524ZM247.184 28.4029C247.945 28.4029 248.528 28.5111 248.935 28.7274C249.341 28.9372 249.623 29.2716 249.78 29.7305C249.944 30.1894 250.026 30.8253 250.026 31.6382C250.026 32.4839 249.948 33.1526 249.79 33.6443C249.633 34.136 249.348 34.4998 248.935 34.7358C248.528 34.9718 247.945 35.0898 247.184 35.0898H244.932V28.4029H247.184ZM247.184 33.9098C247.61 33.9098 247.925 33.8246 248.128 33.6541C248.338 33.4837 248.473 33.2411 248.532 32.9264C248.597 32.6052 248.63 32.1496 248.63 31.5595C248.63 31.0351 248.597 30.6385 248.532 30.3697C248.466 30.1009 248.332 29.9042 248.128 29.7796C247.925 29.6485 247.61 29.583 247.184 29.583H246.289V33.9098H247.184ZM260.444 28.4029V35.0898H259.087V29.9173H258.94L257.632 34.7948H256.275L254.967 29.9173H254.819V35.0898H253.462V28.4029H255.773L256.953 33.2706L258.133 28.4029H260.444ZM264.431 35.2078C263.756 35.2078 263.215 35.0866 262.808 34.844C262.402 34.6014 262.107 34.231 261.923 33.7328C261.746 33.228 261.658 32.5757 261.658 31.7759C261.658 30.9695 261.746 30.3139 261.923 29.8091C262.107 29.2978 262.402 28.9176 262.808 28.6684C263.215 28.4128 263.756 28.2849 264.431 28.2849C265.106 28.2849 265.647 28.4128 266.053 28.6684C266.46 28.9176 266.752 29.2978 266.929 29.8091C267.112 30.3139 267.204 30.9695 267.204 31.7759C267.204 32.5626 267.115 33.2051 266.938 33.7033C266.768 34.2015 266.48 34.5785 266.073 34.8342C265.667 35.0833 265.119 35.2078 264.431 35.2078ZM264.431 34.0278C264.785 34.0278 265.06 33.9557 265.257 33.8115C265.46 33.6607 265.601 33.4247 265.68 33.1034C265.765 32.7756 265.808 32.3331 265.808 31.7759C265.808 31.2186 265.765 30.7761 265.68 30.4483C265.594 30.114 265.45 29.8681 265.247 29.7108C265.05 29.5469 264.778 29.465 264.431 29.465C264.083 29.465 263.808 29.5469 263.605 29.7108C263.408 29.8681 263.267 30.114 263.182 30.4483C263.097 30.7761 263.054 31.2186 263.054 31.7759C263.054 32.2938 263.09 32.7134 263.162 33.0346C263.234 33.3558 263.369 33.6017 263.565 33.7721C263.769 33.9426 264.057 34.0278 264.431 34.0278ZM273.619 28.4029V35.0898H272.262V32.3167H269.774V35.0898H268.417V28.4029H269.774V31.1367H272.262V28.4029H273.619ZM278.524 33.8803H276.183L275.918 35.0898H274.561L276.065 28.4029H278.642L280.146 35.0898H278.789L278.524 33.8803ZM277.589 29.524H277.117L276.439 32.7003H278.268L277.589 29.524ZM288.068 28.4029V35.0898H286.711V29.9173H286.563L285.255 34.7948H283.898L282.59 29.9173H282.443V35.0898H281.086V28.4029H283.397L284.577 33.2706L285.757 28.4029H288.068ZM290.933 29.583V31.1465H293.313V32.3069H290.933V33.9098H293.903V35.0898H289.576V28.4029H293.903V29.583H290.933ZM297.322 28.4029C298.083 28.4029 298.666 28.5111 299.073 28.7274C299.479 28.9372 299.761 29.2716 299.918 29.7305C300.082 30.1894 300.164 30.8253 300.164 31.6382C300.164 32.4839 300.086 33.1526 299.928 33.6443C299.771 34.136 299.486 34.4998 299.073 34.7358C298.666 34.9718 298.083 35.0898 297.322 35.0898H295.07V28.4029H297.322ZM297.322 33.9098C297.748 33.9098 298.063 33.8246 298.266 33.6541C298.476 33.4837 298.611 33.2411 298.67 32.9264C298.735 32.6052 298.768 32.1496 298.768 31.5595C298.768 31.0351 298.735 30.6385 298.67 30.3697C298.604 30.1009 298.47 29.9042 298.266 29.7796C298.063 29.6485 297.748 29.583 297.322 29.583H296.427V33.9098H297.322Z" fill="#FBC205"/>
</g>
<rect x="30.5859" y="103.877" width="37.9855" height="27.6259" rx="4.31654" fill="#BDB4A3" stroke="#070707" stroke-width="0.431654"/>
<rect x="57.3477" y="103.877" width="27.6259" height="15.5395" rx="7.76977" transform="rotate(90 57.3477 103.877)" stroke="#070707" stroke-width="0.431654"/>
<line x1="57.5635" y1="112.294" x2="68.3548" y2="112.294" stroke="#070707" stroke-width="0.431654" stroke-linecap="round"/>
<line x1="68.3584" y1="123.087" x2="57.567" y2="123.087" stroke="#070707" stroke-width="0.431654" stroke-linecap="round"/>
<line x1="30.7979" y1="112.294" x2="41.5892" y2="112.294" stroke="#070707" stroke-width="0.431654" stroke-linecap="round"/>
<line x1="41.5928" y1="123.087" x2="30.8014" y2="123.087" stroke="#070707" stroke-width="0.431654" stroke-linecap="round"/>
</g>
</g>
<defs>
<filter id="filter0_d_2760_92266" x="0.780906" y="0.0101182" width="329.122" height="214.497" filterUnits="userSpaceOnUse" color-interpolation-filters="sRGB">
<feFlood flood-opacity="0" result="BackgroundImageFix"/>
<feColorMatrix in="SourceAlpha" type="matrix" values="0 0 0 0 0 0 0 0 0 0 0 0 0 0 0 0 0 0 127 0" result="hardAlpha"/>
<feOffset dy="1.22921"/>
<feGaussianBlur stdDeviation="4.60955"/>
<feComposite in2="hardAlpha" operator="out"/>
<feColorMatrix type="matrix" values="0 0 0 0 0 0 0 0 0 0 0 0 0 0 0 0 0 0 0.46 0"/>
<feBlend mode="normal" in2="BackgroundImageFix" result="effect1_dropShadow_2760_92266"/>
<feBlend mode="normal" in="SourceGraphic" in2="effect1_dropShadow_2760_92266" result="shape"/>
</filter>
<clipPath id="clip0_2760_92266">
<rect x="10" y="8" width="310.683" height="196.059" rx="11.5239" fill="white"/>
</clipPath>
<clipPath id="clip1_2760_92266">
<rect width="270.427" height="168.402" fill="white" transform="translate(30.1211 21.8262)"/>
</clipPath>
</defs>
</svg>
