<svg width="24" height="24" viewBox="0 0 24 24" fill="none" xmlns="http://www.w3.org/2000/svg">
<path d="M4.74896 4.5C3.78396 4.5 2.99896 5.285 2.99896 6.25V15.75C2.99896 16.715 3.78396 17.5 4.74896 17.5H19.249C20.214 17.5 20.999 16.715 20.999 15.75V6.25C20.999 5.285 20.214 4.5 19.249 4.5H4.74896ZM17.249 7.5C17.4408 7.5 17.6327 7.57323 17.7792 7.71973C18.0722 8.01273 18.0717 8.48727 17.7792 8.78027L13.7792 12.7803C13.5092 13.0503 13.0787 13.0754 12.7802 12.8359L10.7704 11.2275L7.2431 14.3145C7.1006 14.439 6.92446 14.5 6.74896 14.5C6.54046 14.5 6.33251 14.4132 6.18451 14.2432C5.91201 13.9317 5.94332 13.4585 6.25482 13.1855L10.2548 9.68555C10.5283 9.44605 10.9342 9.43706 11.2177 9.66406L13.1933 11.2451L16.7187 7.71973C16.8652 7.57323 17.0571 7.5 17.249 7.5ZM1.74896 18C1.64958 17.9986 1.55091 18.017 1.45868 18.054C1.36645 18.0911 1.28251 18.1461 1.21174 18.2159C1.14096 18.2857 1.08476 18.3688 1.0464 18.4605C1.00804 18.5522 0.988281 18.6506 0.988281 18.75C0.988281 18.8494 1.00804 18.9478 1.0464 19.0395C1.08476 19.1312 1.14096 19.2143 1.21174 19.2841C1.28251 19.3539 1.36645 19.4089 1.45868 19.446C1.55091 19.483 1.64958 19.5014 1.74896 19.5H22.249C22.3483 19.5014 22.447 19.483 22.5392 19.446C22.6315 19.4089 22.7154 19.3539 22.7862 19.2841C22.857 19.2143 22.9132 19.1312 22.9515 19.0395C22.9899 18.9478 23.0096 18.8494 23.0096 18.75C23.0096 18.6506 22.9899 18.5522 22.9515 18.4605C22.9132 18.3688 22.857 18.2857 22.7862 18.2159C22.7154 18.1461 22.6315 18.0911 22.5392 18.054C22.447 18.017 22.3483 17.9986 22.249 18H1.74896Z" fill="#95999D"/>
</svg>
