<svg width="32" height="32" viewBox="0 0 32 32" fill="none" xmlns="http://www.w3.org/2000/svg">
<g clip-path="url(#clip0_177_7641)">
<path d="M29.333 17.7999C29.2879 17.7118 29.2245 17.6344 29.147 17.5729C29.0696 17.5113 28.9798 17.467 28.8838 17.443C28.7879 17.419 28.6878 17.4159 28.5905 17.4337C28.4932 17.4516 28.4008 17.4901 28.3196 17.5466C27.3819 18.2089 26.3137 18.6635 25.1863 18.8799C24.1947 19.08 23.2466 19.4547 22.3863 19.9866C21.896 20.2679 21.4826 20.6656 21.1826 21.1447C20.8826 21.6238 20.7053 22.1694 20.6663 22.7333C20.671 23.0138 20.7159 23.2922 20.7996 23.5599C20.8242 23.6233 20.8271 23.693 20.8078 23.7582C20.7885 23.8233 20.7481 23.8802 20.6929 23.9199C19.892 24.5669 19.1389 25.2709 18.4396 26.0266C18.3941 26.0739 18.3357 26.1067 18.2717 26.1209C18.2076 26.1351 18.1408 26.1302 18.0796 26.1066C18.0175 26.0826 17.964 26.0406 17.926 25.986C17.8879 25.9313 17.8671 25.8665 17.8663 25.7999V19.8799C17.8653 19.8 17.893 19.7224 17.9444 19.6612C17.9957 19.6001 18.0674 19.5594 18.1463 19.5466C20.5825 19.1417 22.7773 17.8355 24.2952 15.8874C25.813 13.9392 26.5427 11.4916 26.3396 9.03035C26.1365 6.5691 25.0153 4.27423 23.1986 2.60131C21.3819 0.928392 19.0026 -0.000244141 16.5329 -0.000244141C14.0633 -0.000244141 11.684 0.928392 9.86733 2.60131C8.05064 4.27423 6.92944 6.5691 6.72629 9.03035C6.52315 11.4916 7.25292 13.9392 8.77074 15.8874C10.2886 17.8355 12.4834 19.1417 14.9196 19.5466C14.9985 19.5594 15.0702 19.6001 15.1215 19.6612C15.1729 19.7224 15.2006 19.8 15.1996 19.8799V24.4933C15.1971 24.5543 15.1785 24.6135 15.1457 24.665C15.1129 24.7165 15.0671 24.7585 15.0129 24.7866C14.9587 24.8196 14.8964 24.837 14.8329 24.837C14.7695 24.837 14.7072 24.8196 14.6529 24.7866C13.8756 24.1341 13.0308 23.5665 12.1329 23.0933C12.0953 23.0781 12.0627 23.0524 12.0391 23.0194C12.0154 22.9863 12.0018 22.9472 11.9996 22.9066C11.9658 22.2948 11.7813 21.7008 11.4626 21.1774C11.144 20.6541 10.7009 20.2175 10.1729 19.9066C8.96626 19.2925 7.62865 18.9802 6.27479 18.9965C4.92094 19.0127 3.59122 19.3571 2.39961 19.9999C2.31496 20.0529 2.24417 20.1252 2.19315 20.211C2.14213 20.2969 2.11234 20.3936 2.10628 20.4933C2.094 20.5917 2.10578 20.6917 2.14061 20.7846C2.17545 20.8774 2.2323 20.9605 2.30628 21.0266C3.04192 21.7844 3.60182 22.6948 3.94628 23.6933C4.26811 24.5585 4.73726 25.3614 5.33295 26.0666C5.65464 26.4856 6.07871 26.8149 6.56439 27.0227C7.05008 27.2305 7.58105 27.3099 8.10628 27.2533C8.56883 27.1593 9.00187 26.955 9.36862 26.6579C9.73538 26.3608 10.025 25.9796 10.2129 25.5466C10.2542 25.4498 10.3318 25.3731 10.4292 25.3332C10.5265 25.2933 10.6356 25.2933 10.7329 25.3333C12.5768 26.1968 14.1223 27.5892 15.1729 29.3333C15.1924 29.3848 15.1924 29.4417 15.1729 29.4933V30.6666C15.1727 30.8474 15.2093 31.0265 15.2804 31.1927C15.3516 31.359 15.4558 31.5091 15.5867 31.6338C15.7177 31.7585 15.8727 31.8553 16.0422 31.9182C16.2117 31.9812 16.3923 32.009 16.5729 31.9999C16.829 32.0131 17.0834 31.9522 17.3056 31.8245C17.5279 31.6968 17.7087 31.5077 17.8263 31.2799C18.9902 29.234 20.528 27.4249 22.3596 25.9466C22.3845 25.9222 22.418 25.9085 22.4529 25.9085C22.4878 25.9085 22.5214 25.9222 22.5463 25.9466C22.7546 26.3455 23.0475 26.6941 23.4044 26.9681C23.7614 27.2422 24.1738 27.435 24.6129 27.5333C25.27 27.5915 25.9315 27.4911 26.5417 27.2405C27.152 26.9899 27.6931 26.5965 28.1196 26.0933C28.9692 24.9081 29.5227 23.5368 29.7338 22.094C29.9449 20.6512 29.8074 19.1788 29.333 17.7999ZM14.1329 15.7999C13.9693 15.8175 13.8037 15.8003 13.6471 15.7497C13.4904 15.6991 13.3462 15.616 13.2238 15.506C13.1013 15.3959 13.0034 15.2614 12.9364 15.111C12.8694 14.9607 12.8347 14.7979 12.8347 14.6333C12.8347 14.4686 12.8694 14.3059 12.9364 14.1555C13.0034 14.0052 13.1013 13.8706 13.2238 13.7605C13.3462 13.6505 13.4904 13.5675 13.6471 13.5168C13.8037 13.4662 13.9693 13.4491 14.1329 13.4666H17.3863C17.6137 13.468 17.8344 13.3897 18.0101 13.2454C18.1859 13.101 18.3055 12.8997 18.3483 12.6763C18.391 12.453 18.3543 12.2217 18.2443 12.0226C18.1343 11.8236 17.9581 11.6693 17.7463 11.5866L14.4396 10.2533C13.7717 9.98399 13.2095 9.50486 12.8377 8.88812C12.4659 8.27138 12.3047 7.55047 12.3785 6.83413C12.4522 6.11778 12.7569 5.44483 13.2465 4.91677C13.7362 4.3887 14.3842 4.03416 15.0929 3.9066C15.3729 3.9066 15.3596 3.61326 15.3596 3.4266C15.3421 3.26291 15.3592 3.09737 15.4099 2.94073C15.4605 2.7841 15.5435 2.63987 15.6536 2.51743C15.7636 2.39498 15.8982 2.29706 16.0485 2.23003C16.1989 2.163 16.3617 2.12836 16.5263 2.12836C16.6909 2.12836 16.8537 2.163 17.004 2.23003C17.1544 2.29706 17.289 2.39498 17.399 2.51743C17.509 2.63987 17.5921 2.7841 17.6427 2.94073C17.6934 3.09737 17.7105 3.26291 17.6929 3.4266C17.6929 3.73326 17.8396 3.85326 18.0263 3.85326H18.9329C19.2209 3.88409 19.4872 4.02029 19.6808 4.23566C19.8743 4.45103 19.9814 4.73037 19.9814 5.01993C19.9814 5.30949 19.8743 5.58883 19.6808 5.8042C19.4872 6.01957 19.2209 6.15577 18.9329 6.1866H15.7063C15.4446 6.1866 15.1936 6.29055 15.0086 6.47558C14.8236 6.66062 14.7196 6.91158 14.7196 7.17326C14.7191 7.36847 14.7774 7.5593 14.8867 7.72099C14.9961 7.88267 15.1516 8.00773 15.3329 8.07993L18.6396 9.41326C19.3075 9.68148 19.8701 10.1595 20.2427 10.7752C20.6154 11.391 20.7778 12.1111 20.7056 12.8272C20.6334 13.5433 20.3304 14.2165 19.8424 14.7455C19.3543 15.2744 18.7076 15.6305 17.9996 15.7599C17.7196 15.7599 17.7196 16.0533 17.7196 16.2399C17.7371 16.4036 17.72 16.5692 17.6694 16.7258C17.6187 16.8824 17.5357 17.0267 17.4257 17.1491C17.3156 17.2715 17.1811 17.3695 17.0307 17.4365C16.8803 17.5035 16.7176 17.5382 16.5529 17.5382C16.3883 17.5382 16.2255 17.5035 16.0752 17.4365C15.9248 17.3695 15.7903 17.2715 15.6802 17.1491C15.5702 17.0267 15.4872 16.8824 15.4365 16.7258C15.3859 16.5692 15.3688 16.4036 15.3863 16.2399C15.3863 15.9333 15.2529 15.7999 15.0529 15.7999H14.1329Z" fill="#95999D"/>
</g>
<defs>
<clipPath id="clip0_177_7641">
<rect width="32" height="32" fill="white"/>
</clipPath>
</defs>
</svg>
