<svg width="15" height="15" viewBox="0 0 15 15" fill="none" xmlns="http://www.w3.org/2000/svg">
<g clip-path="url(#clip0_108_958)">
<path fill-rule="evenodd" clip-rule="evenodd" d="M5.87147 2.6519C4.84996 2.97551 3.94794 3.59593 3.28036 4.4341C2.61277 5.27227 2.20986 6.29023 2.12297 7.35824H4.7363C4.75555 6.7189 4.81505 6.0889 4.91422 5.49157C5.03497 4.76007 5.21464 4.08574 5.44505 3.50824C5.5617 3.21079 5.70439 2.92423 5.87147 2.6519ZM7.5013 1.5249C6.6778 1.5249 5.86237 1.6871 5.10156 2.00224C4.34075 2.31738 3.64945 2.77929 3.06715 3.36159C2.48485 3.94389 2.02295 4.63518 1.70781 5.39599C1.39267 6.1568 1.23047 6.97224 1.23047 7.79574C1.23047 8.61923 1.39267 9.43467 1.70781 10.1955C2.02295 10.9563 2.48485 11.6476 3.06715 12.2299C3.64945 12.8122 4.34075 13.2741 5.10156 13.5892C5.86237 13.9044 6.6778 14.0666 7.5013 14.0666C9.16443 14.0666 10.7594 13.4059 11.9355 12.2299C13.1115 11.0539 13.7721 9.45886 13.7721 7.79574C13.7721 6.13261 13.1115 4.5376 11.9355 3.36159C10.7594 2.18558 9.16443 1.5249 7.5013 1.5249ZM7.5013 2.3999C7.34905 2.3999 7.15189 2.4734 6.92322 2.71024C6.69222 2.9494 6.4618 3.32332 6.25764 3.83315C6.05522 4.34007 5.89014 4.9514 5.77697 5.63507C5.68655 6.1834 5.63114 6.76499 5.61247 7.35824L9.39014 7.35824C9.37328 6.78085 9.31833 6.20521 9.22564 5.63507C9.11247 4.9514 8.94739 4.34007 8.74497 3.83315C8.5408 3.32332 8.31039 2.9494 8.07997 2.71024C7.85072 2.4734 7.65414 2.3999 7.5013 2.3999ZM10.2663 7.35824C10.2488 6.73274 10.1893 6.10912 10.0884 5.49157C9.96764 4.76007 9.78797 4.08574 9.55755 3.50824C9.44072 3.21077 9.29783 2.92421 9.13055 2.6519C9.95536 2.91279 10.7053 3.36837 11.3169 3.98015C12.2218 4.88528 12.7754 6.08257 12.8791 7.35824H10.2663ZM9.39014 8.23324H5.61247C5.63055 8.82649 5.68655 9.40807 5.77697 9.9564C5.89014 10.6401 6.05522 11.2514 6.25764 11.7583C6.4618 12.2682 6.69222 12.6421 6.92264 12.8812C7.15189 13.1181 7.34847 13.1916 7.5013 13.1916C7.65355 13.1916 7.85072 13.1181 8.07939 12.8812C8.31039 12.6421 8.5408 12.2682 8.74497 11.7583C8.94739 11.2514 9.11247 10.6401 9.22564 9.9564C9.31605 9.40807 9.37147 8.82649 9.39014 8.23324ZM9.13114 12.9396C9.28864 12.6864 9.43155 12.3977 9.55697 12.0832C9.78797 11.5057 9.96764 10.8314 10.0884 10.0999C10.1891 9.48234 10.2484 8.85872 10.2657 8.23324H12.8791C12.7922 9.30125 12.3892 10.3192 11.7217 11.1574C11.0541 11.9955 10.1526 12.616 9.13114 12.9396ZM5.87089 12.9396C5.70401 12.6672 5.56151 12.3807 5.44505 12.0832C5.21405 11.5057 5.03439 10.8314 4.91364 10.0999C4.81288 9.48234 4.75363 8.85872 4.7363 8.23324H2.12297C2.20982 9.30117 2.61264 10.3191 3.28012 11.1572C3.94759 11.9954 4.84949 12.6159 5.87089 12.9396Z" fill="#292852"/>
</g>
<defs>
<clipPath id="clip0_108_958">
<rect width="14" height="14" fill="white" transform="translate(0.5 0.795746)"/>
</clipPath>
</defs>
</svg>
