<svg width="161" height="50" viewBox="0 0 161 50" fill="none" xmlns="http://www.w3.org/2000/svg">
<path d="M112.48 14.1047C112.48 7.40959 117.908 1.98215 124.603 1.98215H157.89V28.4939C157.89 40.1223 148.464 49.5489 136.835 49.5489H112.48V14.1047Z" fill="white"/>
<path d="M127.772 0C118.259 0 110.539 7.71377 110.539 17.2268V49.7152H114.265C115.356 47.5204 116.556 45.7212 117.864 44.3239C119.344 42.7479 120.76 41.5995 122.119 40.8658C123.478 40.1384 124.537 39.7683 125.303 39.7683C125.731 39.7683 126.088 39.8577 126.369 40.0236C126.656 40.1895 126.911 40.3553 127.141 40.5212C127.338 40.6488 127.549 40.7828 127.766 40.9168C127.983 41.0508 128.206 41.1146 128.429 41.1146H128.64C129.297 41.1146 129.954 40.9806 130.618 40.719C131.288 40.451 131.9 39.9534 132.468 39.2196C133.061 38.4604 133.623 37.733 134.153 37.0376C134.42 36.693 134.714 36.4251 135.039 36.2592C135.365 36.0805 135.716 35.9912 136.099 35.9912C136.067 34.9002 136.264 33.7581 136.692 32.5586C137.126 31.3655 137.706 30.2234 138.434 29.1324C139.161 28.035 140.029 27.0141 141.043 26.0699C142.058 25.1256 143.123 24.3663 144.253 23.7857C145.376 23.1987 146.447 22.9116 147.436 22.9116C147.653 22.9116 147.845 22.9307 148.004 22.9563C148.176 22.9946 148.31 23.0456 148.432 23.1094C148.731 23.4093 149.108 23.639 149.574 23.8049C150.039 23.9707 150.492 24.0537 150.92 24.0537C151.711 24.0537 152.502 23.773 153.281 23.2051C153.963 22.7202 154.525 21.9801 154.965 21.0103C155.08 20.7615 155.354 20.6275 155.622 20.6913C155.922 20.7615 156.101 21.0613 156.05 21.3612C155.622 23.5879 154.812 25.3297 153.632 26.593C152.349 27.952 150.85 28.6284 149.127 28.6284C148.7 28.6284 148.125 28.5199 147.417 28.2838C146.875 28.1052 146.377 27.8691 145.943 27.582C145.924 27.5692 145.905 27.5501 145.892 27.5373C144.974 27.5692 144.036 27.7415 143.059 28.0605C141.994 28.4114 141.101 28.8899 140.373 29.5025C139.646 30.115 139.276 30.804 139.276 31.5697C139.276 31.927 139.378 32.246 139.576 32.5267C139.78 32.7947 140.073 33.0244 140.469 33.2094C141.834 33.7709 142.823 34.3451 143.429 34.9257C144.048 35.5063 144.355 36.1443 144.355 36.8398C144.355 37.497 144.138 38.1796 143.71 38.8815C143.276 39.5705 142.785 40.1958 142.243 40.7445C141.694 41.2932 141.235 41.7143 140.871 42.0142C140.176 41.5485 139.512 41.1848 138.88 40.9168C138.255 40.6488 137.655 40.5212 137.087 40.5212C135.735 40.5212 134.331 41.4017 132.908 43.1563C131.983 44.3494 130.962 45.4277 129.852 46.3911C128.748 47.3481 127.555 47.833 126.298 47.833H126.101C125.865 47.833 125.616 47.7629 125.354 47.6352C125.086 47.5013 124.85 47.3673 124.659 47.2333C124.32 46.9972 123.982 46.7994 123.631 46.6399C123.287 46.4677 122.847 46.3911 122.317 46.3911C121.979 46.3911 121.424 46.5187 120.626 46.7611C119.829 47.01 118.91 47.4693 117.864 48.1265C117.219 48.5348 116.575 49.0644 115.924 49.7152H138.549C150.537 49.7152 160.254 39.9916 160.254 28.0031V0H127.772ZM129.233 28.035L126.79 31.5122C126.496 31.9142 126.145 32.1184 125.75 32.1184C125.514 32.1184 125.22 32.0609 124.85 31.9652C124.059 31.6654 123.363 31.2889 122.764 30.8423C122.17 30.3957 121.717 29.9555 121.424 29.5216L119.14 32.8074C118.833 33.2094 118.489 33.4072 118.087 33.4072C117.851 33.4072 117.557 33.3561 117.194 33.2604C116.167 32.9223 115.356 32.4183 114.756 31.7419C114.157 31.0593 113.863 30.3765 113.863 29.6747C113.863 29.1132 114.01 28.5965 114.31 28.1307C114.61 27.6649 114.871 27.2885 115.101 26.9886L116.894 24.6534H117.194C117.462 25.5467 117.998 26.2549 118.814 26.7908C119.618 27.3204 120.448 27.6649 121.271 27.8372L124.601 23.3582H124.901C125.169 24.2196 125.667 24.8831 126.394 25.3489C127.121 25.8083 127.9 26.1273 128.736 26.2932C129.297 26.4272 129.578 26.7079 129.578 27.1354C129.578 27.4033 129.463 27.7032 129.233 28.035ZM142.785 18.0052L140.348 21.4888C140.048 21.8844 139.703 22.0822 139.301 22.0822C139.072 22.0822 138.778 22.0375 138.408 21.9418C137.611 21.6356 136.915 21.2655 136.315 20.8125C135.722 20.3659 135.275 19.932 134.982 19.4982L132.685 22.784C132.392 23.1796 132.041 23.3838 131.645 23.3838C131.409 23.3838 131.116 23.3327 130.745 23.2306C129.718 22.8989 128.908 22.3948 128.315 21.7121C127.715 21.0294 127.415 20.3404 127.415 19.6513C127.415 19.0834 127.562 18.573 127.862 18.1072C128.161 17.6415 128.429 17.2651 128.653 16.9588L130.446 14.6236H130.745C131.013 15.5169 131.549 16.2315 132.36 16.761C133.176 17.2906 133.999 17.6415 134.829 17.8074L138.159 13.3348H138.459C138.721 14.1961 139.225 14.8597 139.952 15.3191C140.673 15.7848 141.458 16.0975 142.294 16.2697C142.849 16.391 143.136 16.6781 143.136 17.1119C143.136 17.3735 143.015 17.6798 142.785 18.0052ZM156.554 7.38198L154.11 10.8656C153.817 11.2612 153.466 11.459 153.07 11.459C152.84 11.459 152.541 11.4079 152.17 11.3122C151.373 11.0124 150.684 10.6423 150.084 10.1893C149.491 9.7427 149.038 9.30246 148.744 8.87499L146.447 12.1544C146.154 12.5564 145.803 12.7542 145.407 12.7542C145.178 12.7542 144.878 12.7032 144.514 12.6011C143.487 12.2693 142.677 11.7716 142.077 11.0889C141.477 10.4062 141.184 9.72355 141.184 9.02172C141.184 8.46025 141.33 7.94984 141.63 7.4777C141.93 7.01832 142.192 6.6355 142.421 6.34201L144.214 4.00043H144.514C144.782 4.90006 145.318 5.60827 146.128 6.13784C146.945 6.67378 147.762 7.01831 148.591 7.18419L151.922 2.70524H152.228C152.49 3.56658 152.987 4.23651 153.715 4.70227C154.442 5.15527 155.227 5.47429 156.056 5.64017C156.618 5.78054 156.898 6.05488 156.898 6.48874C156.898 6.75672 156.783 7.05021 156.554 7.38198Z" fill="#19D7C2"/>
<path d="M6.05601 15.8486L4.81827 17.2267L3.14025 15.7146L1.78125 17.2267L3.54222 18.809L4.77357 17.4309L6.45797 18.943L7.81059 17.4309L6.05601 15.8486Z" fill="white"/>
<path d="M10.4258 32.08H10.4321H10.4832C10.464 32.08 10.4449 32.08 10.4258 32.08ZM16.6402 33.3305L15.4024 34.7086L13.7243 33.1965L12.3653 34.7086L14.1263 36.2909L15.3641 34.9128L17.0421 36.4249L18.4011 34.9128L16.6402 33.3305Z" fill="white"/>
<path d="M29.0898 15.5295H28.8155L28.1519 16.5695C27.8074 17.182 27.7244 17.6478 27.7882 18.0689V28.0668C27.7882 28.5198 27.2267 28.724 25.6763 28.7304C24.1068 28.7304 23.2263 28.2518 23.003 27.4734C23.0796 26.7014 23.1115 26.1655 23.1306 25.4828H22.7925C22.6777 26.7461 22.3459 27.5564 21.7461 28.0541C21.1591 28.5453 20.3041 28.7304 19.1557 28.7304H10.4849C9.27903 28.7304 8.14331 28.4177 8.14331 26.9885V19.6384H7.89447L6.81624 20.7359V21.9034C2.35641 23.5368 0.742188 24.7427 0.742188 27.0204C0.742188 29.2982 2.16501 30.1085 3.71542 30.1085C5.61675 30.1085 6.41426 29.0302 6.79708 27.8307C6.86088 30.0575 7.42239 32.0609 10.4275 32.08H19.1557C20.7252 32.0609 21.9439 31.1293 22.3842 29.7959C22.8754 31.225 24.2216 32.08 25.6763 32.08C28.3497 32.08 29.3897 30.134 29.3897 27.8563V20.8443L30.7423 19.0834C29.9448 18.5921 29.1536 16.9013 29.0835 15.5295M6.80985 26.4207C6.78433 27.3586 1.3866 27.2565 1.3866 26.2612C1.3866 25.923 3.47934 24.7937 6.80985 23.8111V26.4207Z" fill="white"/>
<path d="M55.3351 15.5234H55.0607L54.3971 16.5698C54.0526 17.1823 53.9697 17.648 54.0335 18.0691V28.0606C54.0335 28.52 53.472 28.7178 51.9216 28.7306C51.3218 28.7306 49.2227 28.7433 49.0058 26.8484C48.8463 25.0938 48.0487 23.5562 46.5047 23.5562C45.1393 23.5562 43.9079 24.7812 42.4405 27.1036C41.6812 28.3095 40.8262 28.7306 38.9887 28.7306H36.1367C34.1461 28.7306 33.8398 27.6332 33.8398 26.3061V20.5957V15.4404H33.6484L32.1172 17.6991V17.8713C32.3469 18.3945 32.4425 20.0725 32.4553 21.808L32.5064 27.6332C32.5319 30.7914 33.5144 32.0802 36.124 32.0802H36.1367H39.0716C40.7369 32.042 41.5664 30.9828 42.147 29.426C42.4469 30.5426 44.1504 32.0802 46.2814 32.0802C47.181 32.0802 47.8701 31.4805 48.3358 30.5936C48.9292 31.4869 49.9692 32.0802 51.9152 32.0802C54.5885 32.0802 55.6222 30.1343 55.6222 27.8565V20.8382L56.9812 19.0836C56.1836 18.5923 55.3925 16.8951 55.3223 15.5234M43.0849 27.4737C43.9972 26.6761 45.0245 26.2806 45.8922 26.2806C47.2002 26.2806 48.2593 27.2567 48.4507 28.8327C48.489 29.5345 44.5204 28.7306 43.0849 27.4737Z" fill="white"/>
<path d="M57.7305 32.0865C58.0622 30.6062 58.0878 29.126 58.0878 27.6458V17.7117L59.4596 15.6317H59.7148V25.7891C59.7148 28.9984 58.6301 30.7338 57.9219 32.0865H57.7305Z" fill="white"/>
<path d="M68.9115 15.8486L67.6737 17.2267L65.9957 15.7146L64.6367 17.2267L66.3977 18.809L67.629 17.4309L69.3134 18.943L70.6661 17.4309L68.9115 15.8486Z" fill="white"/>
<path d="M101.269 22.9563H100.912L99.687 25.6934C100.3 26.2549 101.761 27.5118 101.761 28.0478C101.761 28.437 100.242 28.7049 98.4748 28.7305H98.462C96.8989 28.7305 96.0184 28.2519 95.7951 27.4736C95.8716 26.7015 95.9099 26.1656 95.929 25.4829H95.5845C95.3548 28.0159 94.2383 28.7305 91.9223 28.7305H91.9095C91.3097 28.7305 89.2106 28.7432 89 26.8483C88.8405 25.0937 88.043 23.556 86.499 23.556C85.1272 23.556 83.8959 24.7811 82.4348 27.1035C81.6755 28.3094 80.8141 28.7305 78.983 28.7305H73.3365C72.1306 28.7305 71.0013 28.4178 71.0013 26.9886V19.6322H70.746L69.6678 20.736V21.9036C65.208 23.5305 63.5938 24.7364 63.5938 27.0205C63.5938 29.3047 65.0166 30.1022 66.5734 30.1022C68.4747 30.1022 69.2658 29.024 69.655 27.8308C69.7124 30.0639 70.2803 32.0801 73.3301 32.0801H79.0723C80.7312 32.0418 81.567 30.9827 82.1412 29.4259C82.4475 30.5425 84.151 32.0801 86.282 32.0801C87.1753 32.0801 87.8708 31.4804 88.3365 30.5935C88.9235 31.4867 89.9699 32.0801 91.9095 32.0801V32.0674H91.9159C93.4982 32.0674 94.7296 31.1231 95.1698 29.7896C95.6611 31.2188 97.0137 32.0737 98.4684 32.0737C101.346 32.061 102.418 30.0639 102.418 27.7224C102.418 26.1464 101.99 24.3983 101.257 22.9499M69.655 26.4144C69.6359 27.3523 64.2318 27.2502 64.2318 26.2549C64.2318 25.9168 66.3309 24.7875 69.655 23.8049V26.4144ZM83.0792 27.4672C83.9916 26.6696 85.0187 26.2741 85.8864 26.2741C87.1944 26.2741 88.2472 27.2502 88.4449 28.8262C88.4768 29.528 84.5211 28.7241 83.0792 27.4672Z" fill="white"/>
<path d="M96.2436 21.074L95.0058 22.4521L93.3278 20.94L91.9688 22.4521L93.7297 24.0344L94.9675 22.6563L96.6456 24.1684L97.9982 22.6563L96.2436 21.074Z" fill="white"/>
<path d="M101.322 17.8904L100.084 19.2685L98.4059 17.7564L97.0469 19.2685L98.8078 20.8509L100.046 19.4727L101.724 20.9848L103.083 19.4727L101.322 17.8904Z" fill="white"/>
<path d="M2.31562 49.6833C3.07487 49.6131 3.4067 49.4536 3.4067 48.5349V42.4928H3.02382C1.58188 42.4928 1.05872 43.2137 0.892828 44.611H0.746094V42.295H7.1774V44.611H7.02428C6.86477 43.2137 6.33523 42.4928 4.89967 42.4928H4.51687V48.5349C4.51687 49.4536 4.83585 49.6131 5.60148 49.6833V49.8237H2.31562V49.6833Z" fill="white"/>
<path d="M13.6742 48.6625C13.9868 49.3835 14.1081 49.5685 14.8609 49.6834V49.8365H11.3773V49.6834C12.3726 49.5494 12.6789 49.3261 12.3854 48.6115L11.926 47.4439H9.0485L8.67839 48.401C8.28919 49.3771 8.46149 49.5494 9.66098 49.6834V49.8365H7.01953V49.6834C7.78517 49.5877 8.00851 49.3197 8.41047 48.3818L10.8796 42.161H10.9243L13.6742 48.6625ZM9.15691 47.1504H11.8047L10.5415 44.0815L10.4394 43.8901L9.15691 47.1504Z" fill="white"/>
<path d="M16.2648 49.6833C17.0241 49.6131 17.3559 49.4536 17.3559 48.5349V42.4928H16.973C15.5311 42.4928 15.0079 43.2137 14.842 44.611H14.6953V42.295H21.1266V44.611H20.9735C20.814 43.2137 20.2845 42.4928 18.8489 42.4928H18.4661V48.5349C18.4661 49.4536 18.7851 49.6131 19.5507 49.6833V49.8237H16.2648V49.6833Z" fill="white"/>
<path d="M22.1055 49.8428V49.6514L22.4692 49.594C22.8903 49.5302 22.9541 49.2686 22.9541 48.9304V43.1882C22.9541 42.8436 22.8903 42.5948 22.4692 42.5182L22.1055 42.4545V42.2694H25.0021V42.4545L24.6257 42.5182C24.211 42.5884 24.1408 42.8564 24.1408 43.1882V48.9304C24.1408 49.2622 24.2046 49.5366 24.6257 49.594L25.0021 49.6514V49.8428H22.1055Z" fill="white"/>
<path d="M30.5065 49.9577L27.4758 43.386H27.4503V48.554C27.4503 49.46 27.7118 49.6259 28.7072 49.6961V49.8365H26.0977V49.6961C26.9335 49.6259 27.195 49.46 27.195 48.554V43.5965C27.195 42.6714 26.9271 42.5055 26.3082 42.4353V42.295H28.184L30.953 48.318H30.9914L33.6328 42.295H35.4576V42.4353C34.7813 42.5055 34.5707 42.6842 34.5707 43.6093V48.5477C34.5707 49.4537 34.8387 49.6259 35.6681 49.6961V49.8365H32.2099V49.6897C33.2053 49.6259 33.4605 49.4537 33.4605 48.5477V43.3733H33.435L30.5383 49.9577H30.5065Z" fill="white"/>
<path d="M43.0555 48.6625C43.3682 49.3835 43.4894 49.5685 44.2423 49.6834V49.8365H40.7586V49.6834C41.754 49.5494 42.0603 49.3261 41.7668 48.6115L41.3073 47.4439H38.4298L38.0598 48.401C37.6706 49.3771 37.8429 49.5494 39.0424 49.6834V49.8365H36.3945V49.6834C37.1665 49.5877 37.3898 49.3197 37.7918 48.3818L40.2609 42.161H40.3057L43.0555 48.6625ZM38.5383 47.1504H41.1861L39.9229 44.0815L39.8207 43.8901L38.5383 47.1504Z" fill="white"/>
<path d="M45.0547 49.8235V49.6831L45.412 49.613C45.8012 49.5364 45.8969 49.3259 45.8969 48.943V43.2008C45.8969 42.8243 45.8204 42.5628 45.412 42.499L45.0547 42.4351V42.2756H47.9514V42.4351L47.5749 42.499C47.1666 42.5628 47.09 42.8243 47.09 43.2008V45.7657H50.8033V43.2008C50.8033 42.8243 50.7204 42.5628 50.312 42.499L49.9484 42.4351V42.2756H52.8387V42.4351L52.475 42.499C52.073 42.5628 51.9838 42.8307 51.9838 43.2008V48.943C51.9838 49.3195 52.0922 49.5364 52.475 49.613L52.8387 49.6831V49.8235H49.9484V49.6831L50.312 49.613C50.7076 49.5364 50.8033 49.3322 50.8033 48.943V46.0528H47.09V48.943C47.09 49.3322 47.1794 49.5364 47.5749 49.613L47.9514 49.6831V49.8235H45.0547Z" fill="white"/>
<path d="M63.1139 48.5477C62.2844 49.4984 61.3018 49.9897 60.1279 49.9897C58.2138 49.9897 56.5039 48.5987 56.5039 46.2125C56.5039 43.8263 58.0033 42.1866 60.3129 42.1866C61.0786 42.1866 61.9399 42.3716 62.7247 42.7034L62.8523 44.2283H62.6991C62.5014 43.7434 62.2908 43.3988 62.0867 43.1755C61.6018 42.6523 60.9956 42.3907 60.2938 42.3907C58.8773 42.3907 57.7736 43.9794 57.7736 46.1615C57.7736 48.3436 58.82 49.5941 60.4278 49.5941C61.1871 49.5941 62.2079 49.1794 62.9416 48.3946L63.1139 48.5477Z" fill="white"/>
<path d="M70.0517 48.6625C70.3643 49.3835 70.4855 49.5685 71.2384 49.6834V49.8365H67.7548V49.6834C68.7501 49.5494 69.0564 49.3261 68.7629 48.6115L68.3035 47.4439H65.426L65.0559 48.401C64.6668 49.3771 64.839 49.5494 66.0385 49.6834V49.8365H63.3906V49.6834C64.1626 49.5877 64.386 49.3197 64.7879 48.3818L67.2571 42.161H67.3017L70.0517 48.6625ZM65.5345 47.1504H68.1822L66.9189 44.0815L66.8169 43.8901L65.5345 47.1504Z" fill="white"/>
<path d="M72.0625 49.8301V49.6642C72.7324 49.5749 72.8728 49.4792 72.8728 48.7135V43.3987C72.8728 42.6204 72.7197 42.531 72.0625 42.4481V42.2822H75.0676C76.8796 42.2822 78.0408 43.0351 78.0408 44.5025C78.0408 45.97 76.8668 46.6846 75.0676 46.6846H74.0723V48.7135C74.0723 49.4664 74.2828 49.5749 75.0868 49.6642V49.8301H72.0625ZM74.0723 46.3975H74.7358C76.082 46.3975 76.752 45.5744 76.752 44.4579C76.752 43.3413 76.0119 42.5247 74.806 42.5247H74.0723V46.3975Z" fill="white"/>
<path d="M78.6328 49.8428V49.6514L78.9965 49.594C79.4176 49.5302 79.4814 49.2686 79.4814 48.9304V43.1882C79.4814 42.8436 79.4176 42.5948 78.9965 42.5182L78.6328 42.4545V42.2694H81.5295V42.4545L81.1531 42.5182C80.7384 42.5884 80.6682 42.8564 80.6682 43.1882V48.9304C80.6682 49.2622 80.732 49.5366 81.1531 49.594L81.5295 49.6514V49.8428H78.6328Z" fill="white"/>
<path d="M84.0578 49.6833C84.8171 49.6131 85.1489 49.4536 85.1489 48.5349V42.4928H84.766C83.3241 42.4928 82.8009 43.2137 82.635 44.611H82.4883V42.295H88.9196V44.611H88.7665C88.607 43.2137 88.0774 42.4928 86.6419 42.4928H86.2591V48.5349C86.2591 49.4536 86.578 49.6131 87.3437 49.6833V49.8237H84.0578V49.6833Z" fill="white"/>
<path d="M95.415 48.6625C95.7276 49.3835 95.8488 49.5685 96.6017 49.6834V49.8365H93.1181V49.6834C94.1134 49.5494 94.4196 49.3261 94.1261 48.6115L93.6668 47.4439H90.7893L90.4192 48.401C90.03 49.3771 90.2022 49.5494 91.4017 49.6834V49.8365H88.7539V49.6834C89.5259 49.5877 89.7493 49.3197 90.1512 48.3818L92.6204 42.161H92.665L95.415 48.6625ZM90.8978 47.1504H93.5455L92.2822 44.0815L92.1802 43.8901L90.8978 47.1504Z" fill="white"/>
<path d="M97.4102 49.8301V49.6514L97.7738 49.5812C98.1758 49.5111 98.2523 49.2559 98.2523 48.8794V43.2265C98.2523 42.8436 98.1758 42.5884 97.7738 42.5183L97.4102 42.4609V42.2822H100.307V42.4609L99.9303 42.5183C99.5348 42.5821 99.4454 42.85 99.4454 43.2265V48.8475C99.4454 49.3707 99.5986 49.5175 100.096 49.5175H101.302C101.921 49.5175 102.457 49.4473 102.706 48.7327L102.948 48.0117H103.082L102.846 49.8301H97.4102Z" fill="white"/>
</svg>
